<svg width="625" height="476" viewBox="0 0 625 476" fill="none" xmlns="http://www.w3.org/2000/svg">
<path d="M186.565 196.72C187.258 196.102 188.667 195.267 190.421 195.843L191.034 196.055C194.104 197.162 197.172 198.988 199.933 200.756C203.03 202.74 205.663 204.591 208.125 205.957L222.651 214.02C227.49 216.696 232.335 219.352 237.2 221.966L237.787 222.291C239.162 223.069 240.56 223.98 241.755 224.724C243.215 225.632 244.455 226.346 245.571 226.777C246.681 227.207 247.351 227.23 247.769 227.129C248.101 227.049 248.709 226.789 249.492 225.607L249.801 225.128C251.321 222.708 252.524 219.842 253.718 216.691C254.947 213.447 256.208 209.775 257.741 206.539L257.816 206.392C258.62 204.896 260.465 204.278 262.017 205.014C263.569 205.749 264.259 207.568 263.61 209.138L263.543 209.288C262.157 212.214 261.059 215.438 259.722 218.967C258.528 222.116 257.164 225.438 255.316 228.414C257.733 229.244 259.741 231.148 260.612 233.724L260.741 234.142L261.04 235.176C261.732 235.614 262.359 236.15 262.899 236.767C263.792 236.972 264.588 237.554 265.035 238.421L265.108 238.57L266.065 240.655C268.324 245.516 270.751 250.355 273.18 255.295C275.942 260.912 278.691 266.631 281.079 272.47C285.858 284.154 289.274 296.5 288.539 309.942C288.443 311.713 286.929 313.069 285.159 312.973C284.526 312.938 283.946 312.72 283.466 312.375C283.16 314.997 282.778 317.544 282.423 319.918C281.906 323.377 281.446 326.505 281.208 329.602C281.08 331.271 280.475 332.789 279.54 334.036C280.369 334.874 280.705 336.139 280.299 337.331C274.606 354.049 269.415 371.961 261.747 388.454L260.997 390.046C260.049 392.033 258.97 394.053 257.677 395.98L257.11 396.799C256.259 397.989 255.568 398.865 254.935 399.455C254.593 399.773 254.165 400.107 253.63 400.356C253.421 400.453 253.22 400.525 253.031 400.579C247.179 405.298 240.503 408.724 234.181 411.932L231.303 413.397C230.53 413.792 229.742 414.2 228.944 414.616L228.844 414.698C225.705 417.253 222.236 420.192 218.75 422.951L217.256 424.121C215.581 425.418 213.23 427.191 209.371 427.831L208.993 427.89C206.972 428.179 205.015 427.729 203.395 426.748C201.595 427.492 199.835 428.264 198.094 429.122L197.352 429.494C195.194 430.593 192.74 431.954 190.303 433.12L189.26 433.607C188.965 433.74 188.577 433.973 187.995 434.353C187.513 434.667 186.848 435.113 186.196 435.499C185.747 435.985 185.148 436.34 184.449 436.475C183.464 436.665 182.663 436.957 181.285 437.351L181.125 437.392C181.108 437.396 181.091 437.398 181.074 437.401C180.514 437.791 179.828 438.005 179.102 437.972L178.938 437.96L176.938 437.757C156.597 435.583 136.041 430.162 117.983 420.065L117.096 419.564L116.955 419.479C115.524 418.564 115.047 416.678 115.898 415.186C116.402 414.301 117.265 413.75 118.198 413.606C118.186 413.098 118.294 412.58 118.537 412.095C118.607 411.956 118.684 411.825 118.77 411.701C118.731 411.676 118.695 411.654 118.664 411.634C118.589 411.585 118.517 411.537 118.46 411.499C118.442 411.487 118.424 411.475 118.408 411.465C113.698 409.53 109.927 405.988 107.496 403.439L107.011 402.924C104.687 400.439 102.463 397.838 100.32 395.197C100.105 395.291 99.8778 395.367 99.6379 395.413C97.8972 395.748 96.2148 394.61 95.8791 392.869L95.8059 392.457C95.6181 391.32 95.5717 390.239 95.6057 389.191C93.4308 386.339 91.3354 383.507 89.3029 380.781L87.5236 378.408C87.3987 378.722 87.2735 379.036 87.1496 379.35L86.5334 380.926C86.4611 381.112 86.3787 381.292 86.3283 381.4C86.2589 381.548 86.2431 381.578 86.1994 381.671C86.4348 382.477 86.3581 383.373 85.9094 384.16C85.0586 385.652 83.192 386.203 81.676 385.438L81.5305 385.358L81.2863 385.208C80.1159 384.426 79.6677 383.226 79.59 382.27C79.5196 381.401 79.7284 380.642 79.8664 380.218C80.0205 379.744 80.215 379.314 80.3449 379.035C80.3885 378.942 80.4986 378.709 80.5129 378.679C80.5614 378.575 80.5616 378.569 80.548 378.604L81.1779 376.995C81.8323 375.336 82.5021 373.68 83.1877 372.028C79.1965 365.35 76.5974 358.452 74.1457 352.095C73.9698 351.977 73.8027 351.842 73.6486 351.687L73.5354 351.566L72.8918 350.839C72.6268 350.535 72.3674 350.231 72.1115 349.926C72.1219 349.963 72.1344 349.999 72.1447 350.036L72.2941 350.593L72.3313 350.755C72.6729 352.418 71.6529 354.075 69.9904 354.506C68.3281 354.936 66.6318 353.982 66.1232 352.362L66.0783 352.203L65.9543 351.74C64.7941 347.573 62.5717 343.451 60.1955 339.302L59.132 337.456C56.344 332.629 54.2118 327.511 52.4006 322.4L52.0412 321.377C50.6545 317.373 48.8254 312.757 47.4895 308.235C46.128 303.628 45.1374 298.704 45.4143 293.638C45.4701 292.618 45.998 291.737 46.7727 291.191C45.667 288.983 44.6091 286.562 43.6594 283.861L43.3215 282.873L43.2131 282.534C41.8174 277.965 42.9163 273.199 45.76 269.743C44.3484 269.348 42.9203 268.962 41.4602 268.594L41.301 268.549C39.6775 268.051 38.7131 266.362 39.133 264.696C39.4255 263.537 40.3147 262.688 41.3898 262.389C41.3691 262.002 41.4172 261.606 41.5451 261.216C42.0982 259.532 43.9124 258.613 45.5969 259.166L46.8654 259.59C49.8188 260.591 52.7239 261.68 55.5773 262.756C58.8581 263.993 62.0653 265.209 65.3088 266.308L66.2522 266.64C66.2442 266.351 66.2334 266.04 66.219 265.709C66.1029 263.044 65.7955 259.442 65.4465 255.664C65.101 251.925 64.7145 248.01 64.4543 244.847C64.324 243.262 64.2227 241.822 64.1731 240.653C64.167 240.512 64.1623 240.368 64.1574 240.224C64.0722 239.16 63.9992 238.095 63.9465 237.029L63.8908 235.718L63.8898 235.552C63.9124 234.133 64.8634 232.926 66.177 232.532C67.2736 231.708 68.8093 231.659 69.965 232.483L70.0979 232.583L70.1975 232.662C71.9053 232.909 73.3569 233.904 74.2688 234.664L74.9299 235.225C77.4069 237.361 79.7106 239.741 81.9006 242.03C85.9355 245.237 89.9848 248.378 94.1662 251.366L95.26 252.171C95.4717 252.324 95.7035 252.488 95.9465 252.657C96.3362 251.833 96.6934 250.845 97.049 249.675C97.678 247.605 98.3852 244.607 99.4982 242.296L100.269 240.728C102.09 237.085 104.076 233.551 106.011 230.097C108.24 226.119 110.405 222.241 112.303 218.243L112.456 217.906C112.817 217.08 113.202 215.979 113.652 214.612C114.142 213.123 114.702 211.344 115.319 209.636C115.938 207.92 116.667 206.125 117.556 204.527C118.427 202.962 119.581 201.346 121.156 200.225L121.409 200.058C122.686 199.282 124.067 199.378 124.751 199.467C125.629 199.582 126.492 199.851 127.178 200.101C127.889 200.36 128.556 200.653 129.063 200.885C129.314 201 129.546 201.11 129.709 201.186C129.886 201.268 129.948 201.297 129.955 201.3L131.259 201.827C137.78 204.494 144.344 207.541 150.481 211.24L151.44 211.828C155.927 214.623 159.96 217.778 163.681 221.227C168.409 223.793 173.093 226.555 177.657 229.613C178.351 225.833 179.154 221.48 180.01 217.246C181.038 212.159 182.162 207.132 183.285 203.422C183.837 201.599 184.444 199.907 185.114 198.657C185.436 198.059 185.901 197.311 186.565 196.72ZM153.956 405.517C154.101 405.608 154.392 405.788 154.938 406.104C155.105 406.2 155.335 406.33 155.61 406.492C155.767 406.414 155.928 406.334 156.092 406.252L156.787 405.898C156.868 405.856 156.948 405.813 157.029 405.771C156.137 405.723 155.102 405.652 153.956 405.517ZM218.098 401.531C217.881 401.579 217.662 401.625 217.441 401.668C217.584 401.682 217.727 401.698 217.868 401.719C217.945 401.657 218.021 401.594 218.098 401.531ZM475.226 86.3106C476.299 86.3509 477.156 86.7779 477.774 87.2393C478.832 88.0298 479.584 89.2749 479.886 89.7325L481.498 92.1573C483.12 94.5763 484.768 96.9798 486.436 99.3907L486.981 100.192C487.994 101.712 488.92 103.253 489.796 104.796L490.575 105.534L516.047 91.5274L517.761 94.7784C518.185 94.4159 518.608 94.0512 519.029 93.6827L519.144 93.587C520.348 92.6366 522.098 92.7873 523.12 93.9542C523.88 94.8219 524.028 96.0141 523.603 97.0079C523.884 97.2289 524.129 97.5049 524.319 97.8311L524.391 97.963L525.151 99.4532C532.951 114.882 539.045 130.853 545.279 146.73L545.66 147.705L555.698 166.747L562.481 162.589C562.79 161.999 563.089 161.403 563.37 160.796L563.77 159.904C564.309 158.653 564.7 157.437 565.236 155.952C565.745 154.541 566.356 152.983 567.258 151.464C567.562 150.951 568.218 150.184 569.362 149.961C570.442 149.75 571.281 150.161 571.679 150.414C572.4 150.872 572.861 151.556 573.063 151.864C573.58 152.655 574.091 153.736 574.508 154.69C574.945 155.688 575.359 156.73 575.669 157.531C575.778 157.813 575.877 158.072 575.959 158.287L583.803 168.586L576.358 178.6C576.371 178.895 576.398 179.181 576.443 179.462C576.647 180.745 577.235 182.088 578.836 183.579L579.331 184.047C580.479 185.144 581.573 186.28 582.612 187.352C583.67 188.442 584.679 189.475 585.716 190.437L586.163 190.844L586.271 190.946C587.358 192.029 587.417 193.786 586.38 194.94C585.343 196.093 583.589 196.221 582.398 195.254L582.283 195.157L581.778 194.693C580.606 193.607 579.499 192.474 578.447 191.39C577.53 190.444 576.657 189.539 575.773 188.675L574.883 187.824C574.546 187.51 574.233 187.192 573.94 186.872C573.948 187.069 573.938 187.27 573.904 187.472L573.876 187.619L572.984 191.643C568.488 211.741 563.424 231.501 556.466 251.044L555.435 253.921C553.089 260.433 550.685 266.882 548.338 273.328L537.818 311.347L526.154 325.732C525.223 327.292 524.3 328.838 523.391 330.368C520.876 334.603 517.569 337.871 514.05 340.66L504.212 352.796L487.395 358.941L485.638 358.454C485.134 358.651 484.634 358.843 484.138 359.027C482.838 359.512 481.412 359.003 480.69 357.884C480.55 357.855 480.41 357.819 480.273 357.769C472.821 355.02 465.056 353.265 457.063 351.327C449.143 349.407 441.04 347.316 433.306 343.89L430.002 342.428C422.336 339.046 414.934 335.876 407.027 333.222L404.317 332.301C401.583 331.356 398.797 330.335 396.118 329.205L395.312 328.851C387.015 325.065 380.207 317.574 375.223 310.961L374.072 309.427C368.355 301.773 363.165 294.341 357.398 286.839L356.781 286.026C350.481 277.583 345.823 267.523 341.224 258.694L340.72 257.712C338.217 252.753 335.966 247.088 334.843 241.48L334.792 241.21C334.349 238.623 335.048 236.395 335.738 234.656C335.782 231.717 336.246 228.928 336.743 226.211C336.711 225.852 336.682 225.497 336.659 225.151C336.441 221.789 336.814 218.607 337.336 215.562C337.886 212.36 338.511 209.722 338.981 206.642L339.165 205.388C339.827 200.765 340.264 196.111 340.675 191.405C340.099 186.13 339.888 180.666 341.042 175.127L341.233 174.261L341.271 174.116C341.527 173.227 342.18 172.549 342.988 172.228C342.991 172.216 342.994 172.203 342.997 172.191C343.25 170.567 343.502 168.947 343.738 167.332L343.779 167.039L343.682 164.223L344.372 161.726C344.418 161.293 344.465 160.853 344.518 160.403C344.794 158.041 345.178 155.591 345.963 153.12L346.837 150.29C347.491 148.188 348.239 145.973 349.304 143.904L350.62 139.149L355.757 133.615C355.996 133.236 356.242 132.854 356.493 132.466L356.855 131.919C358.687 129.212 360.879 126.783 363.086 124.501C365.494 122.011 367.82 119.791 369.989 117.385C370.38 116.952 370.913 116.725 371.453 116.71L372.156 115.954L375.307 115.424C375.387 115.356 375.471 115.29 375.56 115.23C376.383 114.669 377.391 114.59 378.253 114.928L391.017 112.781C391.042 111.725 391.643 110.72 392.66 110.232C394.059 109.561 395.728 110.112 396.461 111.46L396.53 111.593L396.643 111.835L397.637 111.668L409.48 108.229C409.785 107.846 410.098 107.456 410.42 107.057C411.976 105.129 413.735 103.052 415.791 101.403L415.939 101.292C416.703 100.744 417.942 100.324 419.273 100.941C420.32 101.428 420.814 102.318 420.998 102.682C421.315 103.309 421.515 104.051 421.65 104.695L425.8 103.489C426.736 102.72 427.73 101.912 428.751 101.137C431.167 99.3028 433.998 97.4387 437.023 96.5831L437.294 96.5157C437.61 96.4495 438.051 96.3987 438.551 96.4806C439.356 96.6125 440.237 97.0891 440.754 98.0265C441.08 98.617 441.142 99.1852 441.141 99.5665L441.538 99.4767C442.091 99.0105 442.686 98.5119 443.291 98.0284C444.831 96.7987 446.746 95.4093 448.748 94.7013L449.029 94.6153C449.697 94.4447 450.47 94.4741 451.209 94.8341C451.958 95.199 452.38 95.7631 452.591 96.1134C452.749 96.3764 452.863 96.6466 452.947 96.8956L456.475 96.0977L461.162 92.8751C462.27 91.3246 463.459 89.7877 464.773 88.3565L465.035 88.086C465.137 87.9873 465.253 87.8828 465.381 87.7794C465.61 87.5938 466.033 87.284 466.61 87.0919C467.225 86.887 468.225 86.7622 469.233 87.3272L470.475 86.4747L471.699 87.6358C471.926 87.4648 472.16 87.2997 472.401 87.1436L472.707 86.9581C473.438 86.5451 474.287 86.2754 475.226 86.3106ZM92.2043 347.685C92.81 348.464 93.4331 349.233 94.0715 349.985C94.0929 349.635 94.1158 349.291 94.1379 348.956C93.4694 348.569 92.825 348.143 92.2043 347.685ZM387.861 311.812C390.186 314.269 393.03 316.429 395.949 318.509L397.31 319.471C398.36 320.208 399.429 320.931 400.515 321.627L394.102 315.788C392.001 314.519 389.904 313.2 387.861 311.812ZM369.537 293.423C372.076 296.899 374.601 300.387 377.11 303.784C377.099 303.55 377.127 303.316 377.195 303.092C375.723 301.523 374.422 299.732 373.259 298.006C372.596 297.022 371.956 296.025 371.35 295.085C371.344 295.076 371.337 295.066 371.331 295.057L369.537 293.423ZM221.359 298.531C221.409 298.588 221.461 298.645 221.511 298.702C221.51 298.636 221.509 298.57 221.508 298.503C221.459 298.513 221.408 298.522 221.359 298.531ZM350.249 260.148C350.194 260.791 349.835 261.37 349.288 261.709C353.013 269.02 356.724 276.251 361.418 282.541L361.996 283.304C364.488 286.545 366.962 289.899 369.423 293.268L365.771 286.958C361.119 280.353 356.193 273.232 353.024 265.654L352.64 264.713C352.456 264.25 352.258 263.764 352.049 263.257L350.249 260.148ZM274.692 273.825C275.273 275.581 275.837 277.356 276.374 279.152C276.521 279.164 276.666 279.179 276.811 279.198C276.28 277.763 275.721 276.331 275.136 274.9C274.989 274.542 274.841 274.183 274.692 273.825ZM94.0598 259.899C94.5644 260.492 95.0206 261.129 95.4201 261.804C95.7783 261.319 96.1358 260.83 96.4934 260.338C95.9603 260.357 95.4828 260.283 95.1272 260.206C94.7656 260.128 94.4048 260.02 94.0598 259.899ZM349.22 256.286C349.289 256.614 349.4 256.972 349.557 257.424L349.518 257.061C349.417 256.803 349.318 256.545 349.22 256.286ZM340.988 237.16C340.904 237.388 340.83 237.605 340.765 237.813C340.708 238.085 340.651 238.343 340.59 238.571C340.568 238.652 340.543 238.742 340.514 238.838C340.441 239.293 340.433 239.714 340.494 240.133L340.53 240.34C341.151 243.441 342.181 246.627 343.443 249.721C342.72 246.312 342.436 242.866 342.137 239.608C341.446 239.083 340.997 238.258 340.989 237.323C340.989 237.269 340.989 237.214 340.988 237.16ZM77.5754 246.798C77.5248 247.089 77.4587 247.389 77.3723 247.698L77.3098 247.948C77.2579 248.184 77.2203 248.437 77.1926 248.719C77.6871 248.441 78.2119 248.211 78.7619 248.035C78.362 247.619 77.9667 247.207 77.5754 246.798ZM70.6906 241.279C70.8349 242.824 71.0095 244.372 71.1994 245.927C71.3077 245.522 71.3194 245.197 71.1574 244.534L71.0744 244.218L71.0344 244.058C70.8579 243.269 70.9919 242.478 71.3566 241.815C71.1346 241.636 70.9125 241.458 70.6906 241.279ZM346.869 232.631C346.809 234.174 346.778 235.721 346.789 237.279C346.794 237.945 346.571 238.559 346.197 239.051C346.276 239.9 346.353 240.74 346.432 241.569C346.602 240.454 346.884 239.462 347.111 238.648C347.221 238.25 347.317 237.885 347.403 237.543L346.869 232.631ZM236.034 228.717C237.388 230.28 238.98 231.87 240.787 233.521C241.846 234.487 242.94 235.441 244.066 236.403C244.071 235.303 244.292 234.229 244.698 233.236C244.195 233.103 243.711 232.941 243.253 232.764C241.524 232.095 239.838 231.093 238.363 230.175C237.527 229.655 236.764 229.167 236.034 228.717ZM217.234 230.541C217.235 230.704 217.237 230.867 217.237 231.03L217.396 231.122C217.335 230.929 217.28 230.736 217.234 230.541ZM215.184 217.218C215.876 220.007 216.728 223.643 217.076 227.501C217.405 224.95 218.882 222.577 221.287 221.202C221.472 221.097 221.66 221.001 221.849 220.91C221.08 220.486 220.311 220.063 219.543 219.639L215.184 217.218ZM341.41 223.412C341.235 224.45 341.051 225.443 340.874 226.406C340.9 226.664 340.927 226.923 340.954 227.186C341.095 227.214 341.23 227.254 341.362 227.302C341.51 225.151 341.679 223.025 341.841 220.935L341.41 223.412ZM124.356 205.93C124 206.315 123.598 206.873 123.166 207.65C122.6 208.667 122.074 209.89 121.566 211.249C122.582 211.175 123.629 211.282 124.662 211.597C125.555 211.869 126.369 212.277 127.092 212.788C127.656 212.003 128.333 211.339 129.064 210.816C130.481 209.801 131.858 209.469 132.564 209.343C131.326 208.806 130.08 208.283 128.831 207.773L127.562 207.257C127.373 207.181 127.148 207.076 126.995 207.005C126.807 206.917 126.614 206.827 126.391 206.725C125.947 206.521 125.457 206.308 124.98 206.134C124.738 206.046 124.529 205.978 124.356 205.93ZM190.319 202.689C190.053 203.35 189.755 204.213 189.431 205.282C189.277 205.79 189.124 206.329 188.969 206.894C190.073 205.574 191.552 204.628 193.19 204.166C192.201 203.604 191.244 203.104 190.319 202.689Z" fill="url(#paint0_linear_1_248)"/>
<path d="M149.055 314.378C147.862 300.143 147.536 285.594 143.747 271.792C142.152 265.984 138.247 261.582 132.355 259.359C118.041 253.957 102.153 261.869 91.6209 271.283C82.7067 279.252 75.5214 289.075 70.4934 299.937C67.4606 306.489 64.5568 315.474 63.7308 322.721C61.5395 341.947 70.9001 324.352 70.8378 342.701" stroke="black" stroke-width="8.92075" stroke-linecap="round"/>
<path d="M83.6024 325.539C84.917 324.474 86.2387 323.425 87.5436 322.379L87.5811 322.349C88.6257 321.512 91.5231 319.19 90.7798 320.233C89.2849 322.33 86.7277 324.012 84.7433 325.605C83.3596 326.715 83.2908 326.368 83.6024 325.539C83.7325 325.194 83.9288 324.764 84.1234 324.322C85.4837 321.232 86.9636 318.15 88.729 315.27C88.9938 314.838 89.1755 314.515 89.2332 314.319C88.8267 314.703 88.4555 315.048 88.1936 315.293C87.2474 316.178 85.6105 317.576 84.492 318.383C82.8813 319.544 84.3933 317.822 84.5742 317.621C85.6135 316.471 86.7785 315.451 88.0914 314.625C89.0373 314.031 89.3375 313.966 89.2332 314.319C89.289 314.267 89.3455 314.213 89.4024 314.159C89.6256 313.494 89.9741 312.861 90.3995 312.362C89.9587 311.253 89.1414 310.376 87.7724 309.989C87.6714 309.961 87.5463 309.947 87.4212 309.957C87.1328 310.602 86.8599 310.95 86.8558 310.443C86.8532 310.113 87.1369 309.978 87.4212 309.957C87.7861 309.141 88.176 307.849 88.0779 307.215C87.7588 305.153 84.1122 303.612 82.5228 305.088C81.9265 305.642 81.3824 306.197 80.9318 306.857C81.2002 308.215 82.2243 308.315 82.9037 309.269C83.4036 309.972 82.3338 313.035 82.204 313.692C81.7823 315.827 81.2356 317.874 80.4474 319.901C78.9869 323.657 76.3661 327.527 73.4251 330.261C71.451 332.097 70.1272 333.285 67.4707 333.433C66.4785 333.489 63.9638 333.144 63.6439 331.896C62.6067 327.849 63.5118 323.918 64.9686 320.113C67.5047 313.49 69.7453 307.065 74.4901 301.634C75.5057 300.472 77.1835 297.629 78.3526 299.781C78.8239 300.648 79.0029 301.797 79.6639 302.563C80.212 302.314 80.6315 302.331 80.8347 302.746C80.963 303.008 81.0167 303.333 81.0295 303.691C81.2704 303.968 81.3731 304.353 81.2471 305.154C81.2232 305.306 81.0478 305.826 80.8777 306.333C80.8803 306.466 80.8891 306.591 80.9062 306.708C80.9138 306.759 80.9223 306.809 80.9318 306.857C81.3824 306.197 81.9265 305.642 82.5228 305.088C84.1122 303.612 87.7588 305.153 88.0779 307.215C88.176 307.849 87.7861 309.141 87.4212 309.957C87.5463 309.947 87.6714 309.961 87.7724 309.989C89.1414 310.376 89.9587 311.253 90.3995 312.362C90.7261 311.98 91.098 311.677 91.4936 311.502C92.3355 311.129 91.6207 311.97 90.6041 312.991C91.1565 315.109 90.6103 317.822 89.9634 319.667C89.2913 321.585 89.5523 318.278 89.783 317.763C89.8107 317.701 89.8381 317.663 89.8634 317.642C89.7944 317.58 89.6909 317.459 89.5423 317.239C89.0062 316.446 89.0325 315.26 89.4024 314.159C89.3455 314.213 89.289 314.267 89.2332 314.319C89.1755 314.515 88.9938 314.838 88.729 315.27C86.9636 318.15 85.4837 321.232 84.1234 324.322C83.9288 324.764 83.7325 325.194 83.6024 325.539Z" fill="url(#paint1_linear_1_248)"/>
<path d="M77.8686 293.031C83.0385 295.38 88.2557 299.77 91.5312 304.426C92.8953 306.365 94.2361 308.585 95.1032 310.807C95.3046 311.323 95.2284 312.09 95.5102 312.552C96.3808 313.979 94.7722 317.333 94.3357 318.872C93.6386 321.329 92.6834 323.935 90.8956 325.815C87.4238 329.467 82.7596 331.931 78.8218 335.037C76.0878 337.194 73.8356 339.865 70.1236 339.936C68.6104 339.965 73.832 332.988 74.5321 331.898C74.6735 331.678 75.305 330.63 74.9829 331.627C74.5532 332.958 74.0643 334.439 73.4084 335.676C73.3192 335.845 74.6354 333.646 74.9253 333.34C78.7361 329.323 83.2322 325.834 87.5436 322.379C88.5541 321.57 91.5322 319.177 90.7798 320.233C89.2849 322.33 86.7277 324.012 84.7433 325.605C82.7821 327.178 83.4624 325.824 84.1234 324.322C85.4837 321.232 86.9636 318.15 88.729 315.27C89.472 314.058 89.5611 313.701 88.0914 314.625C86.7785 315.451 85.6135 316.471 84.5742 317.621C84.3933 317.822 82.8813 319.544 84.492 318.383C85.6105 317.576 87.2474 316.178 88.1936 315.293C89.4168 314.149 93.0226 310.825 91.4936 311.502C89.7292 312.284 88.434 315.599 89.5423 317.239C90.1804 318.184 89.9888 317.302 89.783 317.763C89.5523 318.278 89.2913 321.585 89.9634 319.667C91.0386 316.6 91.8356 311.137 87.7724 309.989C87.442 309.896 86.8521 309.968 86.8558 310.443C86.865 311.592 88.2536 308.351 88.0779 307.215C87.7588 305.153 84.1122 303.612 82.5228 305.088C81.7818 305.777 81.1214 306.466 80.6208 307.357C80.2637 307.992 81.1899 305.518 81.2471 305.154C81.5171 303.437 80.7368 303.631 79.7975 302.706C79.0247 301.945 78.8542 300.704 78.3526 299.781C77.1835 297.629 75.5057 300.472 74.4901 301.634C69.7453 307.065 67.5047 313.49 64.9686 320.113C63.5118 323.918 62.6067 327.849 63.6439 331.896C63.9638 333.144 66.4785 333.489 67.4707 333.433C70.1272 333.285 71.451 332.097 73.4251 330.261C76.3661 327.527 78.9869 323.657 80.4474 319.901C81.2356 317.874 81.7823 315.827 82.204 313.692C82.3338 313.035 83.4036 309.972 82.9037 309.269C82.2002 308.281 81.1273 308.209 80.9062 306.708C80.7457 305.617 81.3169 303.73 80.8347 302.746C79.7863 300.606 72.9858 309.044 72.4582 310.117C71.2698 312.532 70.8287 315.222 70.58 317.866" stroke="black" stroke-width="8.92075" stroke-linecap="round"/>
<path d="M71.4909 318.162C71.9195 317.872 72.2001 318.682 72.3807 319.765C72.567 319.093 72.7715 318.428 72.9964 317.773C73.3936 316.617 73.7986 315.456 74.234 314.307C74.4244 313.646 74.6273 312.988 74.8468 312.335C75.7739 309.576 76.9018 306.88 77.9567 304.168C78.2589 303.39 78.5503 302.604 79.2108 302.047C79.8569 301.502 81.1314 301.873 82.3411 302.431C82.7032 302.151 83.0687 301.872 83.434 301.592C83.7256 301.369 86.366 299.097 86.7468 299.826C86.9506 300.217 86.9163 301.125 86.9352 301.551C86.9914 302.816 86.8506 303.815 87.3694 305.021C88.5524 307.771 90.2493 310.112 91.6077 312.811C93.5628 316.693 95.0606 321.193 93.2081 325.303C92.0068 327.968 88.5394 331.774 85.4842 332.551C83.7831 332.984 82.6613 333.32 81.3131 334.528L81.2335 334.599C80.1196 335.597 78.8828 336.705 77.6203 337.483C75.9938 338.486 74.2775 339.376 72.6173 340.325C71.7414 340.826 67.5242 343.994 68.6516 341.094C68.9733 340.267 68.9093 338.29 68.3488 337.625C67.6532 336.801 67.8584 335.356 67.8764 334.338C67.9263 331.523 66.4058 329.034 66.6825 325.983C66.9428 323.112 69.0811 319.79 71.4909 318.162Z" fill="url(#paint2_linear_1_248)"/>
<path d="M80.8901 306.563C77.4831 312.152 75.1313 317.545 73.2438 323.763C73.0314 324.463 72.774 325.141 72.5093 325.822C72.2494 326.49 72.6527 324.394 72.6827 323.677C72.7003 323.256 72.5334 317.458 71.4909 318.162C69.0811 319.79 66.9428 323.112 66.6825 325.983C66.4058 329.034 67.9263 331.523 67.8764 334.338C67.8584 335.356 67.6532 336.801 68.3488 337.625C68.9093 338.29 68.9733 340.267 68.6516 341.094C67.5242 343.994 71.7414 340.826 72.6173 340.325C74.2775 339.376 75.9938 338.486 77.6203 337.483C78.913 336.686 80.1786 335.544 81.3131 334.528C82.6613 333.32 83.7831 332.984 85.4842 332.551C88.5394 331.774 92.0068 327.968 93.2081 325.303C95.0606 321.193 93.5628 316.693 91.6077 312.811C90.2493 310.112 88.5524 307.771 87.3694 305.021C86.8506 303.815 86.9914 302.816 86.9352 301.551C86.9163 301.125 86.9506 300.217 86.7468 299.826C86.366 299.097 83.7256 301.369 83.434 301.592C81.538 303.046 79.6335 304.453 78.2472 306.394C75.8049 309.813 74.3551 313.818 72.9964 317.773C72.0768 320.45 71.4971 323.303 71.1114 326.104C70.8532 327.979 70.298 333.547 70.9842 331.783C71.2918 330.992 70.8712 330.038 70.959 329.214C71.0828 328.053 71.0958 326.892 71.411 325.758C72.6482 321.308 73.3737 316.719 74.8468 312.335C75.7739 309.576 76.9018 306.88 77.9567 304.168C78.2589 303.39 78.5503 302.604 79.2108 302.047C80.4449 301.006 83.9712 303.307 84.9599 303.87C87.6357 305.392 88.8711 309.147 88.9823 312.087C89.1067 315.376 87.7187 318.241 87.0266 321.364C86.4532 323.951 86.4063 328.692 82.8598 329.021" stroke="black" stroke-width="8.92075" stroke-linecap="round"/>
<path d="M276.288 324.091C277.961 316.839 279.215 309.112 277.602 301.753C274.421 287.24 265.01 273.76 254.353 263.698C241.763 251.81 221.127 241.358 203.744 248.436C196.189 251.513 188.731 258.005 184.13 264.681C176.888 275.19 173.857 288.452 176.106 301.06C177.103 306.654 179.617 311.481 184.935 313.775C185.809 314.152 186.514 314.372 187.432 314.169" stroke="black" stroke-width="8.92075" stroke-linecap="round"/>
<path d="M202.379 299.436C202.004 301.208 201.598 302.974 201.097 304.718C200.731 305.992 199.747 311.22 197.939 311.429C195.798 311.676 193.61 311.673 191.458 311.726C190.773 311.743 189.184 312.702 189.431 312.065C189.842 311.009 190.818 309.895 191.823 308.958C190.965 309.607 189.31 311.347 189.691 310.542C190.486 308.864 192.533 307.29 193.999 306.088C193.137 306.747 192.429 307.27 192.411 307.224C192.177 306.64 192.756 305.556 193.505 304.485C191.099 306.541 188.898 308.108 187.911 308.623C183.535 310.907 187.071 306.213 188.337 304.731C187.979 304.646 187.76 304.344 187.646 303.905C186.924 304.464 186.171 305.002 185.393 305.523C184.871 305.873 183.33 307.093 182.507 306.621C181.21 305.877 181.38 302.946 181.483 301.815C181.649 300.007 182.163 298.218 182.925 296.498C182.957 294.937 183.434 293.278 183.876 292.072C184.933 289.19 186.684 286.945 189.007 285.36C189.076 283.518 189.622 281.597 190.321 280.084C189.637 281.099 188.846 282.056 187.925 282.941C186.846 283.977 186.715 282.849 186.694 281.832C186.66 280.163 186.962 278.53 187.456 276.947C186.646 277.586 185.807 278.183 184.942 278.731C184.815 278.811 184.659 278.919 184.489 279.034C184.095 280.363 183.799 281.789 183.941 283.098C184.076 284.328 184.061 285.099 183.601 286.281C183.382 286.845 182.212 289.761 181.628 290.863C181.658 292.49 181.669 294.118 181.615 295.75C181.597 296.281 181.569 296.812 181.542 297.343C181.577 297.704 181.602 298.066 181.608 298.416C181.616 298.833 181.812 299.929 181.489 299.663C181.031 299.283 181.49 298.476 181.516 297.883C181.525 297.703 181.533 297.523 181.542 297.343C181.569 296.812 181.597 296.281 181.615 295.75C181.669 294.118 181.658 292.49 181.628 290.863C181.467 291.166 181.351 291.332 181.311 291.274C180.549 290.157 180.561 288.164 180.45 286.862C180.327 285.412 180.045 283.289 180.524 281.886C180.62 281.605 181.593 279.33 181.657 280.254C181.787 282.149 181.508 284.105 181.531 286.006C181.55 287.628 181.599 289.245 181.628 290.863C182.212 289.761 183.382 286.845 183.601 286.281C184.061 285.099 184.076 284.328 183.941 283.098C183.799 281.789 184.095 280.363 184.489 279.034C183.76 279.532 182.771 280.189 182.696 279.548C182.563 278.417 184.07 275.955 184.5 275.079C185.709 272.617 187.15 270.325 188.822 268.165C190.847 264.39 193.569 261.063 197.449 259.73C199.15 259.145 199.148 260.392 198.462 262.205C198.795 262.262 199.135 262.372 199.481 262.542C200.811 263.193 200.889 265.068 200.896 266.34C200.897 266.693 200.888 267.045 200.867 267.398C201.525 267 202.091 266.933 202.494 267.359C203.124 268.026 202.853 270.128 202.778 270.817C202.637 272.121 202.385 273.409 202.056 274.679C203.114 277.836 202.456 281.941 201.561 284.846C201.13 286.244 200.591 287.601 199.943 288.898C200.177 288.942 200.409 289.022 200.638 289.144C206.034 292.019 199.197 299.62 193.505 304.485C192.756 305.556 192.177 306.64 192.411 307.224C192.429 307.27 193.137 306.747 193.999 306.088C194.118 305.991 194.232 305.896 194.342 305.804C196.036 304.385 197.805 303.057 199.552 301.703C200.508 300.925 201.456 300.14 202.398 299.345C202.891 298.93 203.383 298.512 203.873 298.091C204.409 297.632 203.171 298.751 202.379 299.436Z" fill="url(#paint3_linear_1_248)"/>
<path d="M199.35 253.475C202.742 257.536 204.571 261.589 205.722 266.709C206.551 270.398 207.44 274.061 206.988 277.857C206.377 282.988 204.882 287.945 203.738 292.968C202.847 296.883 202.208 300.854 201.097 304.718C200.731 305.992 199.747 311.22 197.939 311.429C195.798 311.676 193.61 311.673 191.458 311.726C190.773 311.743 189.184 312.702 189.431 312.065C190.069 310.424 192.073 308.644 193.427 307.602C193.829 307.293 197.249 305.559 195.465 306.721C194.324 307.464 193.115 308.094 191.979 308.846C191.188 309.37 189.285 311.399 189.691 310.542C190.55 308.728 192.872 307.036 194.342 305.804C196.833 303.717 199.485 301.83 201.993 299.763C202.641 299.23 204.51 297.545 203.873 298.091C201.656 299.992 199.415 301.841 197.123 303.654C197.106 303.668 192.458 307.342 192.411 307.224C191.908 305.965 195.178 302.385 195.79 301.611C197.008 300.072 198.37 298.646 199.497 297.036C199.766 296.651 200.944 295.021 199.551 296.212C195.494 299.68 190.868 303.014 187.513 307.209C187.173 307.634 186.127 308.728 186.657 308.599C187.352 308.43 187.773 307.704 188.293 307.214C189.824 305.771 191.875 303.733 193.278 302.258C195.4 300.026 197.496 297.734 199.262 295.204C199.398 295.01 200.823 293.084 199.451 294.035C195.378 296.855 191.777 300.861 188.5 304.543C187.422 305.754 183.328 311.015 187.911 308.623C191.232 306.89 208.315 293.234 200.638 289.144C199.542 288.559 198.363 288.952 197.337 289.468C193.926 291.182 190.899 294.155 189 297.445C187.805 299.516 185.78 307.655 190.65 303.672C195.177 299.971 198.548 293.852 198.031 287.898C197.934 286.781 197.696 285.035 196.838 284.169C195.429 282.747 192.557 285.056 191.576 285.819C186.788 289.544 182.055 295.567 181.483 301.815C181.38 302.946 181.21 305.877 182.507 306.621C183.33 307.093 184.871 305.873 185.393 305.523C190.833 301.881 195.004 297.395 196.755 290.965C197.459 288.383 198.846 281.999 194.207 283.113C189.245 284.304 185.618 287.323 183.876 292.072C183.161 294.021 182.357 297.155 183.485 299.146C185.236 302.235 191.637 298.264 193.092 297.18C197.229 294.1 200.057 289.728 201.561 284.846C202.578 281.545 203.289 276.695 201.523 273.445C199.318 269.387 192.268 276.854 191.061 278.724C189.226 281.566 187.646 287.701 190.802 290.374C192.14 291.506 193.795 289.764 194.697 288.905C197.427 286.304 199.102 283.007 200.455 279.526C201.543 276.729 202.454 273.815 202.778 270.817C202.853 270.128 203.124 268.026 202.494 267.359C200.304 265.045 193.309 277.275 192.895 278.111C191.411 281.106 190.269 284.294 190.305 287.678C190.307 287.891 190.415 291.69 191.527 291.202C193.453 290.358 194.775 287.331 195.62 285.634C197.009 282.845 198.069 279.882 199.186 276.978C199.375 276.485 201.944 271.621 199.994 271.608C197.257 271.59 194.938 275.107 194.417 277.444C194.302 277.96 193.957 279.666 194.589 280.079C195.885 280.927 198.059 276.715 198.337 276.167C199.87 273.156 200.913 269.741 200.896 266.34C200.889 265.068 200.811 263.193 199.481 262.542C194.724 260.212 191.039 269.084 189.551 272.005C188.006 275.041 186.623 278.36 186.694 281.832C186.715 282.849 186.846 283.977 187.925 282.941C192.563 278.484 193.914 272.172 194.952 266.067C195.166 264.806 196.171 261.792 194.966 262.228C192.862 262.987 190.908 265.597 189.592 267.198C187.589 269.639 185.891 272.246 184.5 275.079C184.07 275.955 182.563 278.417 182.696 279.548C182.789 280.339 184.269 279.157 184.942 278.731C188.456 276.507 191.533 273.457 194.029 270.15C194.35 269.725 202.004 258.165 197.449 259.73C190.391 262.155 187.167 271.175 184.992 277.491C184.404 279.196 183.741 281.262 183.941 283.098C184.076 284.328 184.061 285.099 183.601 286.281C183.321 287.001 181.496 291.545 181.311 291.274C180.549 290.157 180.561 288.164 180.45 286.862C180.327 285.412 180.045 283.289 180.524 281.886C180.62 281.605 181.593 279.33 181.657 280.254C181.787 282.149 181.508 284.105 181.531 286.006C181.57 289.259 181.724 292.496 181.615 295.75C181.591 296.462 181.549 297.172 181.516 297.883C181.49 298.476 181.031 299.283 181.489 299.663C181.812 299.929 181.616 298.833 181.608 298.416C181.593 297.628 181.488 296.786 181.381 296.008C181.298 295.399 180.247 291.298 180.496 291.189" stroke="black" stroke-width="8.92075" stroke-linecap="round"/>
<path d="M195.714 258.612C195.455 260.32 195.212 262.04 194.998 263.754C194.881 264.689 194.749 266.949 195.296 264.769C195.605 263.54 196.187 262.374 196.394 261.121C196.476 260.621 196.298 260.238 196.478 259.775" stroke="black" stroke-width="8.92075" stroke-linecap="round"/>
<path d="M205.812 273C205.227 274.503 204.591 275.975 203.911 277.433C202.984 277.284 202.262 277.045 202.444 276.428C197.95 277.408 200.891 272.975 200.15 272.582C199.614 272.297 207.029 271.051 206.48 271.46C206.121 271.728 205.961 272.615 205.812 273Z" fill="url(#paint4_linear_1_248)"/>
<path d="M206.902 271.624C207.087 271.908 208.585 275.566 208.654 275.888C208.912 277.114 209.174 278.344 209.318 279.59C209.492 281.094 209.331 282.581 209.396 284.087C209.455 285.477 209.544 287.051 209.062 288.388C207.731 292.082 206.211 295.721 204.787 299.382C204.374 300.444 203.973 301.513 203.547 302.57C203.183 303.476 202.592 304.26 202.225 305.167C201.782 306.261 201.455 307.118 200.643 308.005C199.232 309.546 198.163 311.602 196.43 312.825C195.984 313.14 195.241 313.521 194.697 313.568C193.754 313.649 192.949 314.229 191.999 314.336C191.543 314.387 191.201 314.265 190.731 314.376C190.27 314.485 189.422 314.646 188.96 314.526C188.078 314.298 188.68 312.127 188.818 311.648C189.855 308.064 191.492 304.592 192.843 301.117C193.885 298.439 194.723 295.372 196.15 292.859C197.265 290.898 198.368 288.942 199.446 286.956C200.874 284.324 201.914 281.556 203.224 278.872C204.165 276.945 205.034 274.999 205.812 273C205.961 272.615 206.121 271.728 206.48 271.46C207.029 271.051 199.614 272.297 200.15 272.582C200.891 272.975 197.95 277.408 202.444 276.428C201.968 278.039 207.67 277.075 207.061 278.643" stroke="black" stroke-width="8.92075" stroke-linecap="round"/>
<path d="M65.1426 337.877C65.3727 338.194 65.5518 338.516 65.293 338.247C65.2412 338.121 65.1911 337.997 65.1426 337.877Z" fill="url(#paint5_linear_1_248)"/>
<path d="M96.5908 310.547C97.3623 310.786 97.2844 312.709 97.2936 313.322C97.3124 314.58 97.4117 315.812 97.3667 317.072C97.3123 318.599 97.6789 320.275 97.3448 321.78C96.3751 326.149 94.9135 330.383 91.7811 333.739C90.3929 335.227 88.9009 336.601 87.5648 338.134C86.3876 339.486 85.0907 341.068 83.6863 342.168C82.2 343.331 80.5903 344.668 78.852 345.435C78.6584 345.52 78.3314 345.845 78.1176 345.804C77.4749 345.68 76.8769 345.757 76.2155 345.79C74.9751 345.852 73.7974 345.784 72.5825 345.669C71.7571 345.591 70.9183 345.67 70.1516 345.289C68.8999 344.666 67.6982 343.218 66.8705 342.121C65.8863 340.817 65.0958 339.175 64.696 337.581C64.5185 336.873 65.8225 338.797 65.293 338.247C63.0647 332.798 63.9995 333.387 64.0918 332.51C64.3584 329.98 65.5981 328.655 67.4061 327.157C68.3813 326.349 69.3907 325.624 70.5525 325.099C71.3183 324.753 72.0043 325.197 72.7323 325.48" stroke="black" stroke-width="8.92075" stroke-linecap="round"/>
<path d="M84.8817 333.014C84.0883 335.054 83.3788 337.312 82.0305 339.072C81.1869 340.173 79.824 340.606 78.6568 341.263C77.8068 341.741 76.7035 342.889 75.6626 342.523C75.2329 342.372 74.8112 342.192 74.3866 342.027C73.5612 341.706 73.2922 340.09 73.0058 339.388" stroke="black" stroke-width="8.92075" stroke-linecap="round"/>
<path d="M93.7536 280.874C95.259 283.337 96.7434 285.813 98.1252 288.344C98.696 289.389 99.3775 290.57 99.5849 291.777C99.9693 294.015 99.3485 296.471 99.2709 298.714C99.1913 301.012 99.3344 303.111 98.6539 305.336C98.2956 306.507 97.7444 307.607 97.4883 308.808C97.3112 309.638 97.3187 309.912 96.8105 308.982C95.5748 306.72 94.5614 304.452 93.7329 302.011C92.9638 299.744 93.0512 297.845 93.0452 295.461C93.0451 295.436 93.045 295.412 93.0449 295.388C91.3161 295.883 89.8714 296.158 88.6997 295.663C88.6898 295.673 88.6799 295.683 88.67 295.693C87.8418 296.548 87.1003 296.644 86.5825 296.225C85.8886 297.21 85.2901 297.737 85.04 297.148C84.8364 296.669 84.758 296.073 84.7477 295.446C84.0771 295.761 83.3917 295.944 82.7437 295.902C81.6634 295.833 81.6108 292.892 81.5869 292.346C81.4367 288.924 83.0547 284.981 86.339 284.502C86.7771 283.168 87.4461 281.926 88.3551 280.888C89.3754 279.723 91.428 279.864 92.816 279.996C92.9849 280.013 93.1278 280.029 93.2478 280.048C93.8323 280.143 93.8756 280.309 93.7536 280.874Z" fill="url(#paint6_linear_1_248)"/>
<path d="M91.0434 276.455C93.4441 280.39 95.9157 284.297 98.1252 288.344C98.696 289.389 99.3775 290.57 99.5849 291.777C99.9693 294.015 99.3485 296.471 99.2709 298.714C99.1913 301.012 99.3344 303.111 98.6539 305.336C98.2956 306.507 97.7444 307.607 97.4883 308.808C97.3112 309.638 97.3187 309.912 96.8105 308.982C95.5748 306.72 94.5614 304.452 93.7329 302.011C92.9638 299.744 93.0512 297.845 93.0452 295.461C93.0364 291.941 92.517 288.47 91.857 285.017C91.6537 283.953 91.3775 282.913 91.0949 281.869C91.0317 281.635 91.035 281.441 90.7272 281.683C88.8579 283.152 87.8577 286.072 87.1029 288.194C86.4208 290.112 85.6551 292.396 85.849 294.484C86.0224 296.349 87.2117 297.198 88.67 295.693C90.3836 293.925 91.5897 291.527 92.573 289.305C92.9849 288.374 93.9887 286.467 93.4825 285.324C93.1737 284.627 92.088 284.014 91.4136 283.785C89.2396 283.049 87.2088 284.993 86.4341 286.777C85.6648 288.548 85.2297 290.466 85.008 292.378C84.8543 293.703 84.4893 295.851 85.04 297.148C85.7896 298.913 89.6694 290.656 89.8675 290.06C90.1409 289.238 91.1144 286.531 90.7686 285.554C90.6422 285.196 88.9619 284.794 88.6584 284.705C83.8225 283.281 81.4048 288.196 81.5869 292.346C81.6108 292.892 81.6634 295.833 82.7437 295.902C84.8048 296.035 87.2429 293.892 88.3882 292.478C91.0011 289.252 92.7275 285.242 93.674 281.22C93.9085 280.223 93.9553 280.105 92.816 279.996C91.428 279.864 89.3754 279.723 88.3551 280.888C85.6436 283.983 85.067 288.897 86.3879 292.66C87.8629 296.862 90.3945 296.201 94.0716 295.083C95.6551 294.602 95.3377 291.107 95.0537 289.931C94.8832 289.225 94.3073 288.796 93.8959 288.238C93.0862 287.14 92.6056 285.678 92.0175 284.458" stroke="black" stroke-width="8.92075" stroke-linecap="round"/>
<path d="M101.248 301.67C101.15 300.533 100.856 299.49 100.45 298.488C100.46 298.595 100.468 298.704 100.473 298.816C100.566 300.635 100.086 302.381 100.075 304.193C100.064 306.019 100.167 307.854 99.8043 309.652C99.5984 310.674 99.1896 311.625 98.8765 312.613C97.8508 315.85 97.451 319.362 96.7484 322.685C96.6848 322.985 95.8008 325.833 96.4172 324.248L99.2888 316.863C99.6957 315.817 100.391 314.655 100.474 313.514C100.551 312.45 100.64 311.559 100.97 310.541C101.306 309.505 101.241 308.397 101.501 307.343C101.808 306.097 101.388 305.215 101.325 303.963C101.286 303.199 101.313 302.434 101.248 301.67Z" fill="url(#paint7_linear_1_248)"/>
<path d="M98.0554 293.921C99.4719 296.474 100.998 298.767 101.248 301.67C101.313 302.434 101.286 303.199 101.325 303.963C101.388 305.215 101.808 306.097 101.501 307.343C101.241 308.397 101.306 309.505 100.97 310.541C100.64 311.559 100.551 312.45 100.474 313.514C100.391 314.655 99.6957 315.817 99.2888 316.863C98.3316 319.325 97.3744 321.786 96.4172 324.248C95.8008 325.833 96.6848 322.985 96.7484 322.685C97.451 319.362 97.8508 315.85 98.8765 312.613C99.1896 311.625 99.5984 310.674 99.8043 309.652C100.167 307.854 100.064 306.019 100.075 304.193C100.086 302.381 100.566 300.635 100.473 298.816C100.413 297.626 100.106 296.683 99.9034 295.573" stroke="black" stroke-width="8.92075" stroke-linecap="round"/>
<path d="M274.011 318.937C271.623 306.538 268.99 294.068 263.455 282.619C260.371 276.24 256.384 270.401 252.289 264.643C249.228 260.338 246.157 256.003 242.056 252.61C234.138 246.061 220.266 237.512 209.694 242.993C206.913 244.436 204.822 247.196 202.841 249.512C200.767 251.937 198.659 254.399 196.974 257.121C195.811 258.999 194.987 261.052 194.189 263.103" stroke="black" stroke-width="8.92075" stroke-linecap="round"/>
<path d="M149.861 307.042C147.476 294.536 145.691 281.871 139.291 270.686C135.832 264.641 131.318 259.761 124.561 257.601C120.983 256.458 117.582 257.076 114.352 258.982C108.373 262.511 103.227 268.455 98.678 273.604C94.4112 278.434 91.7728 283.08 90.576 289.375" stroke="black" stroke-width="8.92075" stroke-linecap="round"/>
<path d="M61.6688 333.577C62.1642 335.227 63.3925 336.966 64.6279 338.712C66.6914 341.627 68.828 344.797 72.5025 347.756C74.6531 349.487 77.685 349.078 80.2101 349.178" stroke="black" stroke-width="8.92075" stroke-linecap="round"/>
<path d="M164.327 369.181C169.276 365.817 171.1 359.753 171.715 353.475C171.162 346.569 169.592 338.426 165.15 340.661C158.151 344.183 152.861 353.509 155.796 361.357C156.515 363.279 161.273 371.257 164.327 369.181Z" fill="url(#paint8_linear_1_248)"/>
<path d="M171.854 339.166C172.007 348.207 173.27 363.102 164.327 369.181C161.273 371.257 156.515 363.279 155.796 361.357C152.861 353.509 158.151 344.183 165.15 340.661C172.174 337.126 172.017 359.549 172.013 361.983C172.004 367.579 172.072 373.777 170.061 379.102C169.406 380.837 168.624 383.37 167.141 384.613C165.751 385.777 161.349 387.602 160.145 385.529C158.934 383.443 158.668 381.614 159.78 379.536C160.561 378.076 161.436 375.601 163.235 375.7" stroke="black" stroke-width="8.92075" stroke-linecap="round"/>
<path d="M152.552 359.394C153.025 367.117 154.726 374.195 158.187 381.091C158.507 381.726 159.729 384.89 160.863 384.042C161.967 383.217 162.953 382.169 163.98 381.248" stroke="black" stroke-width="8.92075" stroke-linecap="round"/>
<path d="M270.189 199.294C266.728 206.597 264.603 215.637 260.146 222.364C254.863 230.339 247.429 222.966 240.605 219.3C229.041 213.088 217.579 206.671 206.101 200.301C199.993 196.912 192.546 190.825 185.779 188.603C181.359 187.152 174.651 233.412 173.037 238.565C171.718 242.778 166.881 233.586 166.747 233.414C158.425 222.726 149.349 213.539 137.665 206.495C130.149 201.964 122.021 198.254 113.886 194.985C113.017 194.635 108.553 192.234 107.082 193.28C102.252 196.718 100.209 208.137 97.8199 213.168C93.1931 222.911 87.309 231.988 82.6355 241.693C80.336 246.468 79.9366 253.546 76.1097 257.408C75.1248 258.402 70.6169 255.67 69.9795 255.263C61.1542 249.629 54.8705 240.587 46.871 233.92C44.5733 232.006 41.8506 231.276 41.18 235.139C40.4675 239.243 45.1418 272.749 43.1151 273.164C41.1267 273.571 39.3332 272.735 37.4668 272.103C29.6308 269.45 22.0005 266.232 14.1388 263.652" stroke="black" stroke-width="8.92075" stroke-linecap="round"/>
<path d="M41.9987 231.512C51.495 239.044 60.8101 246.837 70.6765 253.888C71.3044 254.337 77.1225 258.815 77.5395 257.545" stroke="black" stroke-width="8.92075" stroke-linecap="round"/>
<path d="M40.8106 232.113C41.0915 240.171 42.3492 248.203 43.3925 256.187C43.8678 259.825 44.5175 263.865 44.0066 267.562C43.7511 269.411 43.6592 271.722 43.0826 273.478" stroke="black" stroke-width="8.92075" stroke-linecap="round"/>
<path d="M11.3541 267.52C19.7165 269.63 27.8515 272.37 36.1506 274.642C37.9154 275.125 39.5996 274.59 41.3445 274.916C43.3786 275.296 44.719 276.402 46.8135 275.693" stroke="black" stroke-width="8.92075" stroke-linecap="round"/>
<path d="M45.5916 268.853C46.8371 269.734 47.9019 271.684 48.0094 273.224C48.1732 275.571 48.6842 274.901 48.4947 272.668C48.0407 267.319 46.1899 260.995 47.9133 255.745" stroke="black" stroke-width="8.92075" stroke-linecap="round"/>
<path d="M48.6467 253.509C49.1045 250.826 48.5976 248.005 49.3209 245.419C49.739 243.925 49.587 242.745 49.1864 241.302" stroke="black" stroke-width="8.92075" stroke-linecap="round"/>
<path d="M163.613 437.109C167.399 437.316 171.185 437.523 174.971 437.73C180.985 438.059 183.457 432.433 188.715 430.993" stroke="black" stroke-width="8.92075" stroke-linecap="round"/>
<path d="M73.4813 373.297C68.5856 382.923 64.202 392.896 60.2962 402.964C60.0168 403.684 58.7763 405.707 59.7976 406.29" stroke="black" stroke-width="8.92075" stroke-linecap="round"/>
<path d="M83.2319 386.185C81.6005 394.649 79.7303 403.144 78.6164 411.701C78.3416 413.811 78.2573 415.717 78.654 417.775" stroke="black" stroke-width="8.92075" stroke-linecap="round"/>
<path d="M226.395 357.893C223.655 363.546 221.256 369.385 218.953 375.228C218.594 376.137 216.818 379.463 217.545 380.695" stroke="black" stroke-width="8.92075" stroke-linecap="round"/>
<path d="M243.012 366.88C242.132 373.829 240.833 380.65 240.451 387.649" stroke="black" stroke-width="8.92075" stroke-linecap="round"/>
<path d="M104.504 376.924C101.896 388.563 99.1454 400.183 96.6454 411.844" stroke="black" stroke-width="8.92075" stroke-linecap="round"/>
<path d="M261.98 364.531C259.949 372.291 257.421 380.085 256.146 388.012" stroke="black" stroke-width="8.92075" stroke-linecap="round"/>
<path d="M105.174 442.984C119.23 450.021 137.958 456.819 152.915 461.654C159.715 463.852 167.035 465.916 174.305 465.879C178.802 465.856 178.078 464.783 181.943 464.079" stroke="black" stroke-width="8.92075" stroke-linecap="round"/>
<path d="M289.884 351.447C282.838 372.139 276.628 393.716 267.177 413.51C265.946 416.087 264.569 418.616 262.908 420.94C258.905 426.54 260.845 421.911 256.655 425.895" stroke="black" stroke-width="8.92075" stroke-linecap="round"/>
<path d="M272.015 237.197C284.104 263.866 301.108 289.715 299.453 320.006" stroke="black" stroke-width="8.92075" stroke-linecap="round"/>
<path d="M24.7861 307.799C29.9636 322.968 36.0613 338.083 42.1335 352.923C44.3995 358.461 47.3489 362.63 51.2706 367.005" stroke="black" stroke-width="8.92075" stroke-linecap="round"/>
<path d="M260.197 423.494C252.301 430.271 242.855 434.742 233.683 439.436C229.8 441.423 225.966 443.492 222.068 445.452C217.553 447.721 213.148 450.286 208.438 452.134C203.337 454.136 198.346 456.02 193.453 458.512C190.326 460.104 187.21 461.86 184.016 463.312C181.462 464.472 178.349 467.707 175.864 466.617" stroke="black" stroke-width="8.92075" stroke-linecap="round"/>
<path d="M173.721 468.148C148.833 465.746 123.718 459.242 101.949 446.828" stroke="black" stroke-width="8.92075" stroke-linecap="round"/>
<path d="M43.2831 369.346C41.6113 362.891 37.9715 356.65 34.6618 350.919C31.3048 345.106 28.7559 338.862 26.5594 332.52C23.1057 322.549 18.3194 311.879 18.9086 301.098" stroke="black" stroke-width="8.92075" stroke-linecap="round"/>
<path d="M175.092 467.555C176.461 467.163 177.782 466.706 179.169 466.439" stroke="black" stroke-width="8.92075" stroke-linecap="round"/>
<path d="M426.179 161.102C428.215 148.887 431.047 136.593 430.809 124.188C430.709 118.967 428.368 114.434 423.892 111.309C413.018 103.715 397.979 106.971 387.12 112.633C377.929 117.426 369.795 124.145 363.252 132.199C359.305 137.057 354.947 143.986 352.706 149.899C346.761 165.586 358.382 152.8 354.413 168.204" stroke="black" stroke-width="8.05958" stroke-linecap="round"/>
<path d="M368.801 156.509C370.133 155.894 371.468 155.295 372.787 154.695L372.825 154.678C373.881 154.197 376.812 152.865 375.965 153.582C374.261 155.025 371.753 155.893 369.746 156.807C368.346 157.445 368.362 157.138 368.801 156.509C368.984 156.246 369.241 155.927 369.499 155.597C371.301 153.292 373.203 151.018 375.301 148.975C375.615 148.668 375.837 148.435 375.927 148.283C375.504 148.519 375.118 148.73 374.846 148.88C373.862 149.421 372.188 150.247 371.076 150.686C369.475 151.317 371.113 150.193 371.308 150.063C372.427 149.319 373.623 148.71 374.903 148.297C375.824 147.999 376.09 148.009 375.927 148.283C375.985 148.251 376.044 148.218 376.104 148.185C376.433 147.674 376.861 147.216 377.325 146.888C377.191 145.862 376.692 144.95 375.624 144.333C375.546 144.288 375.443 144.25 375.336 144.231C374.956 144.711 374.652 144.946 374.757 144.519C374.825 144.241 375.093 144.188 375.336 144.231C375.817 143.623 376.42 142.622 376.473 142.068C376.645 140.267 373.91 138.194 372.26 139.095C371.64 139.433 371.065 139.783 370.545 140.241C370.481 141.44 371.32 141.742 371.687 142.689C371.957 143.386 370.404 145.731 370.155 146.255C369.345 147.959 368.449 149.563 367.354 151.098C365.325 153.942 362.297 156.634 359.242 158.304C357.191 159.425 355.825 160.141 353.562 159.698C352.716 159.533 350.677 158.707 350.675 157.589C350.667 153.967 352.266 150.858 354.303 147.972C357.847 142.949 361.101 138.028 366.248 134.478C367.349 133.718 369.366 131.687 369.889 133.745C370.099 134.575 370.005 135.578 370.396 136.363C370.91 136.27 371.259 136.374 371.341 136.766C371.393 137.014 371.369 137.299 371.303 137.602C371.446 137.886 371.45 138.231 371.174 138.878C371.121 139 370.863 139.4 370.611 139.79C370.585 139.902 370.566 140.009 370.556 140.11C370.551 140.155 370.548 140.199 370.545 140.241C371.065 139.783 371.64 139.433 372.26 139.095C373.91 138.194 376.645 140.267 376.473 142.068C376.42 142.622 375.817 143.623 375.336 144.231C375.443 144.25 375.546 144.288 375.624 144.333C376.692 144.95 377.191 145.862 377.325 146.888C377.681 146.636 378.058 146.462 378.428 146.399C379.215 146.265 378.435 146.819 377.363 147.46C377.375 149.358 376.337 151.52 375.399 152.933C374.425 154.4 375.35 151.678 375.654 151.294C375.691 151.248 375.722 151.222 375.748 151.21C375.703 151.143 375.642 151.019 375.564 150.803C375.283 150.022 375.558 149.031 376.104 148.185C376.044 148.218 375.985 148.251 375.927 148.283C375.837 148.435 375.615 148.668 375.301 148.975C373.203 151.018 371.301 153.292 369.499 155.597C369.241 155.927 368.984 156.246 368.801 156.509Z" fill="url(#paint9_linear_1_248)"/>
<path d="M370.923 127.97C374.765 131.048 378.212 135.85 379.97 140.461C380.702 142.382 381.355 144.533 381.609 146.585C381.668 147.062 381.441 147.69 381.579 148.138C382.006 149.523 379.938 151.998 379.243 153.198C378.132 155.114 376.774 157.099 374.87 158.297C371.174 160.624 366.728 161.7 362.757 163.469C359.999 164.697 357.537 166.461 354.403 165.728C353.125 165.43 359.002 160.682 359.823 159.916C359.988 159.761 360.743 159.015 360.259 159.784C359.614 160.81 358.887 161.95 358.072 162.85C357.961 162.972 359.536 161.406 359.845 161.211C363.905 158.649 368.427 156.678 372.787 154.695C373.809 154.23 376.822 152.856 375.965 153.582C374.261 155.025 371.753 155.893 369.746 156.807C367.762 157.711 368.623 156.718 369.499 155.597C371.301 153.292 373.203 151.018 375.301 148.975C376.184 148.115 376.335 147.834 374.903 148.297C373.623 148.71 372.427 149.319 371.308 150.063C371.113 150.193 369.475 151.317 371.076 150.686C372.188 150.247 373.862 149.421 374.846 148.88C376.118 148.18 379.857 146.156 378.428 146.399C376.779 146.679 374.983 149.188 375.564 150.803C375.898 151.732 375.925 150.951 375.654 151.294C375.35 151.678 374.425 154.4 375.399 152.933C376.957 150.585 378.793 146.165 375.624 144.333C375.367 144.184 374.855 144.119 374.757 144.519C374.52 145.486 376.378 143.059 376.473 142.068C376.645 140.267 373.91 138.194 372.26 139.095C371.49 139.515 370.788 139.953 370.177 140.595C369.741 141.053 371.048 139.171 371.174 138.878C371.767 137.493 371.07 137.489 370.478 136.511C369.991 135.707 370.113 134.628 369.889 133.745C369.366 131.687 367.349 133.718 366.248 134.478C361.101 138.028 357.847 142.949 354.303 147.972C352.266 150.858 350.667 153.967 350.675 157.589C350.677 158.707 352.716 159.533 353.562 159.698C355.825 160.141 357.191 159.425 359.242 158.304C362.297 156.634 365.325 153.942 367.354 151.098C368.449 149.563 369.345 147.959 370.155 146.255C370.404 145.731 371.957 143.386 371.687 142.689C371.307 141.709 370.421 141.419 370.556 140.11C370.653 139.16 371.536 137.696 371.341 136.766C370.917 134.744 363.402 140.383 362.73 141.171C361.215 142.948 360.271 145.113 359.497 147.281" stroke="black" stroke-width="8.05958" stroke-linecap="round"/>
<path d="M360.199 147.725C360.621 147.573 360.684 148.313 360.605 149.262C360.905 148.737 361.219 148.222 361.547 147.72C362.128 146.833 362.716 145.944 363.327 145.071C363.628 144.557 363.939 144.047 364.263 143.545C365.631 141.425 367.154 139.401 368.619 137.346C369.039 136.758 369.452 136.159 370.126 135.832C370.785 135.513 371.777 136.097 372.674 136.824C373.038 136.665 373.405 136.509 373.771 136.352C374.064 136.226 376.767 134.882 376.932 135.575C377.02 135.947 376.797 136.702 376.722 137.064C376.499 138.14 376.168 138.949 376.346 140.073C376.753 142.636 377.679 144.966 378.244 147.523C379.058 151.202 379.356 155.302 376.923 158.36C375.344 160.343 371.618 162.801 368.885 162.802C367.364 162.803 366.349 162.846 364.959 163.573L364.877 163.616C363.728 164.216 362.452 164.883 361.225 165.268C359.644 165.763 358.012 166.144 356.415 166.588C355.572 166.822 351.352 168.583 352.918 166.387C353.365 165.761 353.734 164.086 353.405 163.408C352.996 162.567 353.477 161.396 353.709 160.545C354.352 158.19 353.606 155.775 354.49 153.27C355.321 150.913 357.827 148.578 360.199 147.725Z" fill="url(#paint10_linear_1_248)"/>
<path d="M370.573 139.985C366.517 143.954 363.39 147.983 360.477 152.805C360.149 153.348 359.788 153.863 359.42 154.378C359.059 154.884 359.845 153.209 360.023 152.613C360.128 152.263 361.226 147.356 360.199 147.725C357.827 148.578 355.321 150.913 354.49 153.27C353.606 155.775 354.352 158.19 353.709 160.545C353.477 161.396 352.996 162.567 353.405 163.408C353.734 164.086 353.365 165.761 352.918 166.387C351.352 168.583 355.572 166.822 356.415 166.588C358.012 166.144 359.644 165.763 361.225 165.268C362.481 164.874 363.789 164.184 364.959 163.573C366.349 162.846 367.364 162.803 368.885 162.802C371.618 162.801 375.344 160.343 376.923 158.36C379.356 155.302 379.058 151.202 378.244 147.523C377.679 144.966 376.753 142.636 376.346 140.073C376.168 138.949 376.499 138.14 376.722 137.064C376.797 136.702 377.02 135.947 376.932 135.575C376.767 134.882 374.064 136.226 373.771 136.352C371.868 137.169 369.967 137.944 368.388 139.279C365.606 141.631 363.533 144.686 361.547 147.72C360.203 149.773 359.107 152.046 358.185 154.317C357.568 155.838 355.913 160.397 356.866 159.061C357.293 158.462 357.144 157.571 357.393 156.898C357.745 155.949 358.004 154.976 358.511 154.09C360.5 150.615 362.089 146.914 364.263 143.545C365.631 141.425 367.154 139.401 368.619 137.346C369.039 136.758 369.452 136.159 370.126 135.832C371.385 135.222 373.857 137.907 374.567 138.591C376.491 140.441 376.727 143.86 376.193 146.354C375.595 149.144 373.817 151.256 372.569 153.731C371.535 155.783 370.484 159.756 367.434 159.276" stroke="black" stroke-width="8.05958" stroke-linecap="round"/>
<path d="M531.011 196.423C533.964 190.687 536.667 184.462 536.883 177.934C537.308 165.061 532.278 151.726 525.472 140.996C517.431 128.321 502.323 115.133 486.206 117.37C479.202 118.342 471.55 122.205 466.259 126.833C457.93 134.117 452.552 144.613 451.751 155.687C451.395 160.6 452.477 165.192 456.456 168.255C457.109 168.758 457.655 169.094 458.469 169.119" stroke="black" stroke-width="8.05958" stroke-linecap="round"/>
<path d="M474.173 159.93C473.479 161.339 472.762 162.737 471.968 164.095C471.389 165.087 469.446 169.27 467.883 169.059C466.031 168.81 464.193 168.34 462.373 167.925C461.794 167.793 460.254 168.26 460.598 167.777C461.169 166.978 462.227 166.25 463.271 165.677C462.411 166.039 460.649 167.148 461.142 166.553C462.168 165.313 464.223 164.428 465.712 163.731C464.847 164.1 464.141 164.388 464.135 164.346C464.063 163.805 464.781 163.018 465.639 162.278C463.178 163.492 460.994 164.339 460.055 164.561C455.891 165.546 459.864 162.357 461.244 161.381C460.961 161.234 460.842 160.933 460.84 160.54C460.114 160.855 459.367 161.147 458.602 161.419C458.088 161.601 456.533 162.298 455.942 161.725C455.011 160.823 455.78 158.397 456.108 157.468C456.633 155.985 457.447 154.591 458.454 153.309C458.815 152.004 459.569 150.712 460.198 149.793C461.701 147.597 463.652 146.085 465.942 145.248C466.393 143.716 467.262 142.218 468.173 141.096C467.381 141.803 466.512 142.438 465.55 142.985C464.422 143.626 464.552 142.65 464.752 141.791C465.079 140.381 465.681 139.073 466.434 137.849C465.617 138.213 464.785 138.536 463.941 138.811C463.817 138.851 463.664 138.908 463.497 138.969C462.881 140.002 462.328 141.136 462.169 142.267C462.019 143.329 461.842 143.973 461.204 144.869C460.899 145.296 459.294 147.496 458.568 148.297C458.245 149.671 457.907 151.041 457.513 152.401C457.384 152.843 457.248 153.283 457.112 153.723C457.064 154.035 457.008 154.344 456.939 154.64C456.856 154.992 456.786 155.954 456.573 155.661C456.269 155.245 456.826 154.664 456.975 154.172C457.02 154.022 457.066 153.873 457.112 153.723C457.248 153.283 457.384 152.843 457.513 152.401C457.907 151.041 458.245 149.671 458.568 148.297C458.368 148.518 458.234 148.632 458.213 148.575C457.811 147.474 458.247 145.802 458.432 144.684C458.637 143.44 458.854 141.595 459.556 140.519C459.696 140.303 461 138.6 460.856 139.39C460.561 141.01 459.909 142.593 459.523 144.196C459.193 145.562 458.888 146.932 458.568 148.297C459.294 147.496 460.899 145.296 461.204 144.869C461.842 143.973 462.019 143.329 462.169 142.267C462.328 141.136 462.881 140.002 463.497 138.969C462.777 139.232 461.806 139.573 461.88 139.018C462.009 138.039 463.802 136.292 464.35 135.648C465.891 133.838 467.591 132.219 469.457 130.761C471.965 128.022 474.961 125.808 478.507 125.516C480.06 125.388 479.793 126.434 478.829 127.811C479.097 127.931 479.359 128.096 479.613 128.312C480.592 129.143 480.258 130.735 479.991 131.805C479.918 132.102 479.834 132.396 479.742 132.688C480.379 132.494 480.869 132.559 481.117 133.003C481.504 133.697 480.827 135.405 480.617 135.969C480.22 137.035 479.734 138.063 479.186 139.059C479.401 141.938 477.972 145.247 476.6 147.496C475.94 148.58 475.197 149.604 474.376 150.556C474.563 150.643 474.741 150.759 474.907 150.911C478.827 154.478 471.46 159.406 465.639 162.278C464.781 163.018 464.063 163.805 464.135 164.346C464.141 164.388 464.847 164.1 465.712 163.731C465.832 163.674 465.949 163.619 466.061 163.565C467.787 162.734 469.557 161.997 471.314 161.232C472.283 160.782 473.247 160.324 474.209 159.858C474.712 159.614 475.214 159.368 475.716 159.119C476.264 158.848 474.985 159.524 474.173 159.93Z" fill="url(#paint11_linear_1_248)"/>
<path d="M481.439 120.666C483.422 124.802 484.094 128.598 483.968 133.145C483.877 136.422 483.842 139.689 482.652 142.783C481.043 146.963 478.729 150.81 476.696 154.785C475.111 157.885 473.726 161.085 471.968 164.095C471.389 165.087 469.446 169.27 467.883 169.059C466.031 168.81 464.193 168.34 462.373 167.925C461.794 167.793 460.254 168.26 460.598 167.777C461.485 166.535 463.548 165.467 464.908 164.881C465.312 164.707 468.555 163.98 466.809 164.575C465.692 164.956 464.541 165.227 463.426 165.617C462.649 165.888 460.618 167.187 461.142 166.553C462.25 165.213 464.562 164.287 466.061 163.565C468.599 162.343 471.231 161.324 473.779 160.123C474.437 159.813 476.367 158.797 475.716 159.119C473.447 160.243 471.169 161.318 468.857 162.352C468.839 162.36 464.149 164.456 464.135 164.346C463.981 163.181 467.493 160.871 468.173 160.351C469.524 159.318 470.973 158.411 472.264 157.298C472.572 157.032 473.91 155.915 472.485 156.618C468.336 158.666 463.738 160.479 460.023 163.288C459.647 163.573 458.534 164.269 459.007 164.274C459.627 164.28 460.136 163.759 460.677 163.458C462.271 162.573 464.43 161.298 465.924 160.358C468.183 158.937 470.433 157.457 472.457 155.709C472.613 155.575 474.222 154.261 472.865 154.767C468.841 156.267 464.961 158.864 461.421 161.259C460.257 162.046 455.694 165.592 460.055 164.561C463.216 163.813 480.484 155.986 474.907 150.911C474.111 150.186 473.037 150.264 472.065 150.478C468.833 151.191 465.655 153.042 463.356 155.402C461.91 156.886 458.471 163.293 463.414 160.986C468.007 158.842 472.146 154.421 472.983 149.307C473.14 148.348 473.313 146.831 472.776 145.92C471.896 144.424 468.99 145.751 468.003 146.183C463.184 148.291 457.922 152.341 456.108 157.468C455.78 158.397 455.011 160.823 455.942 161.725C456.533 162.298 458.088 161.601 458.602 161.419C463.95 159.52 468.412 156.641 471.256 151.612C472.398 149.593 474.927 144.525 470.791 144.471C466.367 144.412 462.675 146.175 460.198 149.793C459.181 151.278 457.837 153.74 458.36 155.653C459.171 158.623 465.397 156.652 466.851 156.052C470.985 154.347 474.294 151.278 476.6 147.496C478.16 144.94 479.792 141.017 479.002 137.909C478.016 134.029 470.498 138.798 469.084 140.111C466.936 142.108 464.299 146.925 466.38 149.845C467.262 151.082 469.025 149.972 469.967 149.442C472.816 147.839 474.926 145.426 476.806 142.791C478.318 140.672 479.705 138.419 480.617 135.969C480.827 135.405 481.504 133.697 481.117 133.003C479.771 130.591 471.283 139.374 470.756 139.988C468.87 142.188 467.23 144.623 466.538 147.473C466.494 147.653 465.774 150.868 466.812 150.696C468.61 150.397 470.368 148.136 471.44 146.891C473.203 144.844 474.725 142.58 476.284 140.379C476.548 140.005 479.745 136.466 478.109 136.039C475.814 135.439 473.114 137.9 472.178 139.752C471.971 140.162 471.317 141.521 471.76 142.003C472.667 142.992 475.393 139.917 475.744 139.516C477.675 137.313 479.28 134.667 479.991 131.805C480.258 130.735 480.592 129.143 479.613 128.312C476.114 125.339 471.123 132.007 469.25 134.144C467.304 136.364 465.433 138.858 464.752 141.791C464.552 142.65 464.422 143.626 465.55 142.985C470.398 140.23 472.88 135.215 475.055 130.307C475.505 129.293 476.992 126.976 475.887 127.084C473.957 127.273 471.758 129.049 470.311 130.114C468.106 131.736 466.123 133.565 464.35 135.648C463.802 136.292 462.009 138.039 461.88 139.018C461.789 139.702 463.285 139.025 463.941 138.811C467.369 137.693 470.605 135.787 473.409 133.541C473.769 133.252 482.667 125.173 478.507 125.516C472.058 126.047 467.424 132.937 464.248 137.78C463.39 139.087 462.392 140.681 462.169 142.267C462.019 143.329 461.842 143.973 461.204 144.869C460.815 145.414 458.311 148.842 458.213 148.575C457.811 147.474 458.247 145.802 458.432 144.684C458.637 143.44 458.854 141.595 459.556 140.519C459.696 140.303 461 138.6 460.856 139.39C460.561 141.01 459.909 142.593 459.523 144.196C458.861 146.937 458.299 149.69 457.513 152.401C457.341 152.993 457.154 153.582 456.975 154.172C456.826 154.664 456.269 155.245 456.573 155.661C456.786 155.954 456.856 154.992 456.939 154.64C457.094 153.975 457.185 153.244 457.262 152.567C457.322 152.038 457.314 148.368 457.547 148.33" stroke="black" stroke-width="8.05958" stroke-linecap="round"/>
<path d="M477.287 124.205C476.705 125.585 476.134 126.979 475.588 128.374C475.29 129.134 474.697 131.005 475.622 129.29C476.144 128.323 476.882 127.467 477.323 126.459C477.499 126.056 477.431 125.697 477.681 125.346" stroke="black" stroke-width="8.05958" stroke-linecap="round"/>
<path d="M482.7 138.451C481.889 139.588 481.039 140.69 480.157 141.769C479.41 141.447 478.854 141.091 479.139 140.612C475.154 140.476 478.571 137.379 478.032 136.89C477.643 136.537 484.139 137.073 483.591 137.299C483.232 137.447 482.908 138.159 482.7 138.451Z" fill="url(#paint12_linear_1_248)"/>
<path d="M483.91 137.527C484.005 137.806 484.483 141.199 484.472 141.484C484.427 142.569 484.385 143.659 484.24 144.736C484.065 146.037 483.612 147.252 483.345 148.531C483.098 149.712 482.837 151.053 482.147 152.074C480.239 154.894 478.185 157.627 476.208 160.399C475.634 161.203 475.069 162.015 474.486 162.813C473.986 163.496 473.322 164.029 472.82 164.713C472.214 165.537 471.757 166.187 470.885 166.759C469.371 167.753 468.034 169.253 466.316 169.91C465.874 170.079 465.169 170.241 464.702 170.164C463.892 170.031 463.092 170.347 462.271 170.234C461.877 170.18 461.615 170.004 461.197 169.997C460.786 169.99 460.039 169.944 459.676 169.745C458.985 169.365 459.953 167.669 460.172 167.297C461.808 164.507 463.925 161.939 465.802 159.307C467.249 157.279 468.607 154.881 470.343 153.075C471.698 151.664 473.043 150.257 474.372 148.818C476.134 146.912 477.599 144.808 479.272 142.832C480.474 141.414 481.62 139.964 482.7 138.451C482.908 138.159 483.232 137.447 483.591 137.299C484.139 137.073 477.643 136.537 478.032 136.89C478.571 137.379 475.154 140.476 479.139 140.612C478.395 141.864 483.392 142.272 482.545 143.458" stroke="black" stroke-width="8.05958" stroke-linecap="round"/>
<path d="M350.658 162.935C350.783 163.251 350.865 163.56 350.705 163.279C350.688 163.161 350.673 163.047 350.658 162.935Z" fill="url(#paint13_linear_1_248)"/>
<path d="M382.915 146.685C383.512 147.05 383.036 148.65 382.913 149.167C382.661 150.227 382.481 151.284 382.174 152.333C381.803 153.605 381.753 155.091 381.151 156.284C379.404 159.748 377.272 162.994 373.923 165.145C372.439 166.099 370.892 166.935 369.442 167.938C368.165 168.822 366.737 169.875 365.323 170.499C363.825 171.159 362.187 171.94 360.563 172.212C360.382 172.243 360.038 172.446 359.867 172.366C359.354 172.124 358.835 172.062 358.272 171.948C357.217 171.736 356.242 171.427 355.245 171.071C354.569 170.829 353.847 170.716 353.284 170.232C352.365 169.442 351.665 167.968 351.203 166.87C350.655 165.564 350.341 164.017 350.345 162.591C350.347 161.959 351.032 163.854 350.705 163.279C349.996 158.225 350.656 158.919 350.92 158.202C351.684 156.133 353.009 155.284 354.848 154.412C355.839 153.941 356.843 153.547 357.931 153.354C358.648 153.227 359.13 153.746 359.681 154.14" stroke="black" stroke-width="8.05958" stroke-linecap="round"/>
<path d="M368.28 163.063C367.178 164.608 366.1 166.353 364.592 167.544C363.648 168.289 362.41 168.362 361.289 168.664C360.473 168.885 359.301 169.614 358.504 169.084C358.176 168.866 357.86 168.624 357.538 168.395C356.913 167.949 357.032 166.534 356.941 165.883" stroke="black" stroke-width="8.05958" stroke-linecap="round"/>
<path d="M386.865 121.147C387.604 123.537 388.323 125.935 388.944 128.356C389.2 129.356 389.521 130.494 389.437 131.553C389.283 133.515 388.237 135.446 387.693 137.314C387.135 139.228 386.807 141.022 385.761 142.746C385.21 143.654 384.512 144.461 384.04 145.415C383.714 146.074 383.662 146.306 383.434 145.416C382.878 143.252 382.511 141.13 382.336 138.902C382.173 136.834 382.652 135.256 383.156 133.251C383.161 133.231 383.166 133.211 383.171 133.191C381.613 133.237 380.34 133.16 379.462 132.494C379.451 132.5 379.441 132.507 379.43 132.513C378.552 133.055 377.909 132.976 377.563 132.514C376.769 133.194 376.154 133.509 376.07 132.96C376.001 132.514 376.062 131.997 376.188 131.468C375.557 131.589 374.942 131.597 374.406 131.423C373.513 131.134 374.097 128.653 374.193 128.189C374.798 125.281 376.999 122.313 379.861 122.612C380.514 121.585 381.341 120.684 382.326 120.006C383.432 119.245 385.127 119.801 386.265 120.209C386.403 120.259 386.52 120.303 386.616 120.345C387.087 120.549 387.088 120.698 386.865 121.147Z" fill="url(#paint14_linear_1_248)"/>
<path d="M385.531 116.855C386.708 120.674 387.951 124.484 388.944 128.356C389.2 129.356 389.521 130.494 389.437 131.553C389.283 133.515 388.237 135.446 387.693 137.314C387.135 139.228 386.807 141.022 385.761 142.746C385.21 143.654 384.512 144.461 384.04 145.415C383.714 146.074 383.662 146.306 383.434 145.416C382.878 143.252 382.511 141.13 382.336 138.902C382.173 136.834 382.652 135.256 383.156 133.251C383.9 130.292 384.205 127.265 384.387 124.223C384.443 123.286 384.433 122.353 384.419 121.415C384.416 121.205 384.46 121.043 384.149 121.18C382.265 122.016 380.801 124.256 379.714 125.878C378.732 127.343 377.601 129.099 377.318 130.894C377.066 132.499 377.884 133.466 379.43 132.513C381.248 131.393 382.773 129.636 384.073 127.978C384.618 127.284 385.869 125.896 385.687 124.828C385.577 124.176 384.795 123.429 384.277 123.093C382.608 122.01 380.487 123.21 379.455 124.544C378.431 125.867 377.655 127.387 377.061 128.945C376.649 130.026 375.884 131.753 376.07 132.96C376.323 134.604 381.345 128.494 381.639 128.035C382.044 127.403 383.44 125.336 383.358 124.441C383.328 124.114 382.002 123.418 381.766 123.278C378.007 121.049 374.926 124.663 374.193 128.189C374.097 128.653 373.513 131.134 374.406 131.423C376.11 131.975 378.616 130.695 379.88 129.751C382.764 127.598 385.07 124.598 386.724 121.42C387.134 120.633 387.199 120.544 386.265 120.209C385.127 119.801 383.432 119.245 382.326 120.006C379.387 122.028 377.854 126.033 378.16 129.477C378.503 133.323 380.771 133.308 384.099 133.153C385.532 133.087 386.012 130.083 386.024 129.034C386.032 128.404 385.639 127.921 385.413 127.364C384.967 126.269 384.875 124.938 384.641 123.787" stroke="black" stroke-width="8.05958" stroke-linecap="round"/>
<path d="M388.723 140.22C388.883 139.244 388.859 138.305 388.732 137.376C388.717 137.468 388.701 137.562 388.682 137.656C388.371 139.204 387.595 140.569 387.199 142.09C386.8 143.622 386.495 145.185 385.806 146.618C385.415 147.433 384.869 148.145 384.395 148.908C382.842 151.409 381.756 154.275 380.457 156.916C380.339 157.155 378.988 159.36 379.845 158.159L383.834 152.567C384.399 151.775 385.231 150.947 385.544 150.007C385.836 149.129 386.101 148.399 386.596 147.614C387.1 146.816 387.281 145.87 387.724 145.04C388.248 144.059 388.084 143.228 388.298 142.163C388.428 141.512 388.615 140.876 388.723 140.22Z" fill="url(#paint15_linear_1_248)"/>
<path d="M387.695 133.027C388.34 135.475 389.132 137.727 388.723 140.22C388.615 140.876 388.428 141.512 388.298 142.163C388.084 143.228 388.248 144.059 387.724 145.04C387.281 145.87 387.1 146.816 386.596 147.614C386.101 148.399 385.836 149.129 385.544 150.007C385.231 150.947 384.399 151.775 383.834 152.567C382.504 154.431 381.174 156.295 379.845 158.159C378.988 159.36 380.339 157.155 380.457 156.916C381.756 154.275 382.842 151.409 384.395 148.908C384.869 148.145 385.415 147.433 385.806 146.618C386.495 145.185 386.8 143.622 387.199 142.09C387.595 140.569 388.371 139.204 388.682 137.656C388.885 136.644 388.828 135.786 388.895 134.81" stroke="black" stroke-width="8.05958" stroke-linecap="round"/>
<path d="M447.14 189.484C447.006 189.924 446.83 190.361 446.624 190.794C446.58 191.54 446.737 192.37 446.157 193.472C446.013 194.487 445.767 195.44 445.756 195.473C444.926 198.129 442.47 200.519 440.357 202.253C438.53 203.752 436.6 204.913 434.479 205.928C433.557 206.368 431.518 207.029 430.683 206.283C426.464 204.851 428.762 204.985 429.505 204.593C428.735 204.756 427.984 204.767 427.536 204.388C426.504 203.517 426.091 202.767 426.26 201.355C426.576 198.718 428.95 197.626 431.091 196.488C432.249 195.873 433.557 195.841 434.831 195.702C435.448 195.252 436.078 194.824 436.718 194.429C437.024 194.24 441.437 191.655 441.421 192.43C441.417 192.613 441.119 192.997 440.884 193.297C441.472 192.929 442.077 192.596 442.682 192.297C443.644 191.822 444.497 191.523 445.414 191.11C445.875 190.903 446.108 191.141 446.204 191.596C446.354 191.331 446.495 191.063 446.624 190.794C446.651 190.34 446.752 189.918 447.14 189.484Z" fill="url(#paint16_linear_1_248)"/>
<path d="M446.7 186.243C444.067 188.287 441.429 190.198 438.654 192.036C437.449 192.833 436.06 194.279 434.584 194.566C433.249 194.825 431.138 194.711 431.328 192.983C431.501 191.408 432.092 191.002 433.127 189.734C434.205 188.412 434.815 187.219 436.42 186.491C438.938 185.348 441.259 183.851 444.132 183.434C445.943 183.171 446.934 184.913 447.311 186.55C448.15 190.192 444.478 194.216 442.21 196.751C439.375 199.92 435.604 202.142 431.708 203.841C430.708 204.277 428.468 205.175 427.536 204.388C426.504 203.517 426.091 202.767 426.26 201.355C426.576 198.718 428.95 197.626 431.091 196.488C432.862 195.547 434.986 195.972 436.802 195.288C437.95 194.856 439.927 194.797 440.633 193.635C440.776 193.399 441.415 192.699 441.421 192.43C441.437 191.655 437.024 194.24 436.718 194.429C434.894 195.555 433.154 196.947 431.556 198.37C430.376 199.421 428.933 200.18 427.792 201.225C426.93 202.014 428.886 203.548 429.591 203.806C433.239 205.143 435.547 201.638 436.948 198.726C438.313 195.89 431.973 200.267 431.405 200.826C430.58 201.637 429.735 203.576 431.581 202.04C433.975 200.046 436.014 197.579 438.219 195.38C439.488 194.115 441.086 193.085 442.682 192.297C443.644 191.822 444.497 191.523 445.414 191.11C447.073 190.364 445.781 195.395 445.756 195.473C444.926 198.129 442.47 200.519 440.357 202.253C438.53 203.752 436.6 204.913 434.479 205.928C433.557 206.368 431.518 207.029 430.683 206.283C425.922 204.668 429.46 205.045 429.697 204.412C430.069 203.422 431.287 202.473 432.055 201.833C434.713 199.62 437.907 198.29 441.009 196.836C442.629 196.076 444.129 195.977 445.315 194.652C447.57 192.131 445.906 190.863 447.14 189.484" stroke="black" stroke-width="8.05958" stroke-linecap="round"/>
<path d="M530.048 191.507C530.689 180.579 531.139 169.539 528.932 158.738C527.702 152.72 525.598 146.963 523.387 141.25C521.734 136.98 520.079 132.682 517.357 128.956C512.102 121.762 502.271 111.618 492.219 113.968C489.574 114.586 487.228 116.459 485.069 117.982C482.809 119.576 480.512 121.195 478.515 123.123C477.137 124.453 476.006 126.001 474.899 127.554" stroke="black" stroke-width="8.05958" stroke-linecap="round"/>
<path d="M428.423 155.11C429.088 144.094 430.292 133.071 427.302 122.307C425.686 116.49 422.935 111.426 417.718 108.168C414.957 106.444 411.966 106.237 408.846 107.15C403.069 108.838 397.476 112.734 392.555 116.089C387.939 119.237 384.73 122.578 382.381 127.611" stroke="black" stroke-width="8.05958" stroke-linecap="round"/>
<path d="M445.246 301.267C447.263 299.344 449.43 297.992 451.833 296.611C455.237 294.655 458.499 292.46 461.758 290.273C469.514 285.069 477.364 280.008 485.184 274.902" stroke="black" stroke-width="8.05958" stroke-linecap="round"/>
<path d="M523.837 63.2352C515.261 70.7418 506.135 77.1647 497.082 84.0286C496.812 84.2334 492.332 87.9376 491.714 87.6427C491.198 87.3962 490.363 84.2102 490.037 83.6099C487.351 78.6604 484.966 73.8167 481.732 69.1423C479.188 65.465 476.674 61.7893 474.214 58.0574C473.25 56.595 472.163 54.8087 470.235 56.0585C467.667 57.7228 465.686 60.7248 463.781 63.0361C459.827 67.8346 455.706 72.4662 451.546 77.0872C451.4 77.2498 443.43 86.3663 443.008 84.7095C441.623 79.2857 443.715 72.8519 443.304 67.2727C443.285 67.0125 443.321 64.7517 442.54 65.0276C439.097 66.2445 435.286 70.1199 432.499 72.2127C426.962 76.3692 421.549 80.6934 415.87 84.6562C415.287 85.0629 411.733 88.2423 410.566 87.549C408.624 86.3959 408.265 80.8232 407.893 78.7953C407.685 77.6594 407.395 70.9326 405.89 72.1393C401.802 75.4171 398.624 80.6271 394.941 84.4339C393.96 85.4475 387.253 93.6242 385.711 92.7084C382.052 90.5354 380.62 86.3151 378.848 82.6195" stroke="black" stroke-width="8.05958" stroke-linecap="round"/>
<path d="M524.832 67.1427C534.062 85.0987 541.17 103.741 548.537 122.503C552.879 133.562 557.231 145.086 563.189 155.428C564.492 157.691 565.25 155.182 566.147 153.785C569.538 148.501 573.262 143.447 575.765 137.642C577.103 134.538 577.823 131.302 579.554 128.388C580.424 126.921 583.632 135.999 583.876 136.51C589.452 148.159 578.336 157.088 587.666 165.778C590.55 168.464 593.152 171.483 596.071 174.109" stroke="black" stroke-width="8.05958" stroke-linecap="round"/>
<path d="M581.879 139.298C576.97 143.909 572.443 148.976 567.933 153.971C566.894 155.121 563.897 161.17 561.926 158.451C557.307 152.076 554.306 144.368 550.691 137.415C545.826 128.057 540.735 118.808 536.567 109.107C532.514 99.6722 529.529 89.7757 525.042 80.5201C523.994 78.3591 522.988 76.1954 522.088 73.9683C521.685 72.9707 521.062 69.6108 519.898 69.2056C518.561 68.7404 516.18 70.3483 515.154 70.9434C510.694 73.5311 506.776 76.995 502.445 79.793C497.586 82.9328 492.537 85.7709 487.386 88.4005C484.984 89.6269 482.586 91.6191 480.109 92.6115C478.568 93.229 473.609 81.1657 473.112 80.166C469.359 72.6213 466.107 64.757 463.466 56.7641C463.198 55.9542 462.578 56.4546 462.166 56.9033C457.876 61.5771 454.694 67.4901 450.892 72.5568C449.457 74.4694 432.795 96.2347 430.632 93.8655C429.772 92.9238 429.955 91.0821 429.894 89.9351C429.667 85.6579 429.785 81.3904 429.723 77.1104C429.686 74.5756 428.588 71.2226 428.975 68.7407C429.026 68.4149 430.017 66.9394 428.953 67.2401C423.291 68.8414 417.66 74.4778 413.089 77.9202C410.004 80.2437 407.361 82.6111 403.615 83.6803C400.43 84.5891 397.358 85.7971 394.22 86.8464C390.233 88.18 386.216 88.6853 382.148 89.6058C380.027 90.0857 378.84 88.4677 377.587 86.8363" stroke="black" stroke-width="8.05958" stroke-linecap="round"/>
<path d="M424.284 162.459C417.889 169.59 410.428 176.707 402.165 181.606C397.417 184.421 392.151 185.316 386.727 185.81C379.645 186.454 372.423 186.471 365.361 185.594C360.002 184.929 354.076 183.846 348.974 181.95C348.633 181.823 348.293 181.545 347.979 181.358" stroke="black" stroke-width="8.05958" stroke-linecap="round"/>
<path d="M530.526 191.565C513.846 200.647 494.507 197.943 477.793 190.272C468.744 186.119 461.366 181.754 456.343 172.909C454.416 169.516 450.667 163.397 451.921 159.198" stroke="black" stroke-width="8.05958" stroke-linecap="round"/>
<path d="M348.656 158.581C347.799 161.624 347.617 164.767 347.436 167.923C347.133 173.193 346.696 178.932 348.004 184.136C348.769 187.182 352.203 186.14 354.7 186.095" stroke="black" stroke-width="8.05958" stroke-linecap="round"/>
<path d="M431.017 151.12C435.9 150.781 440.765 150.069 445.637 149.569C447.412 149.387 449.36 149.013 451.119 149.38" stroke="black" stroke-width="8.05958" stroke-linecap="round"/>
<path d="M432.234 149.771C438.454 150.065 444.648 150.374 450.822 151.276" stroke="black" stroke-width="8.05958" stroke-linecap="round"/>
<path d="M432.052 150.076L452.527 149.801" stroke="black" stroke-width="8.05958" stroke-linecap="round"/>
<path d="M436.87 147.549C442.295 147.084 447.721 146.668 453.122 146.009" stroke="black" stroke-width="8.05958" stroke-linecap="round"/>
<path d="M359.76 88.0739C360.616 89.3288 332.449 118.382 332.812 119.808C334.488 126.378 325.807 140.276 327.205 146.91C330.211 161.179 324.634 171.368 326.177 185.871C327.441 197.741 329.576 210.532 329.445 222.511C329.408 225.821 327.813 228.405 327.789 231.607C327.732 238.966 332.112 247.934 334.812 254.742C339.194 265.787 347.086 275.924 353.807 285.704C356.534 289.672 359.317 294.695 362.773 298.12C371.86 307.125 384.579 313.506 395.481 320.016C410.603 329.045 425.628 339.477 441.477 347.253C449.57 351.224 459.765 353.557 468.75 354.209" stroke="black" stroke-width="8.05958" stroke-linecap="round"/>
<path d="M581.027 167.255C575.649 191.729 569.673 215.649 561.27 239.251C555.075 256.651 548.265 273.924 542.791 291.551C538.622 304.975 530.922 317.203 523.789 329.214C517.301 340.137 505.536 345.213 495.874 352.669C491.388 356.13 485.939 358.553 480.675 360.515" stroke="black" stroke-width="8.05958" stroke-linecap="round"/>
<path d="M427.763 297.587C430.424 296.964 433.218 297.262 435.945 297.334C438.488 297.401 440.997 297.915 443.536 298.25" stroke="black" stroke-width="8.05958" stroke-linecap="round"/>
<path d="M574.506 177.825C573.145 182.868 570.965 187.735 569.132 192.606C565.202 203.049 561.923 213.577 558.857 224.296C556.645 232.029 554.315 239.706 552.013 247.405C548.874 257.9 545.479 268.308 542.561 278.891C539.349 290.537 537.721 302.593 533.607 313.972C532.102 318.133 529.303 319.708 526.256 322.571C518.833 329.545 511.675 336.2 504.965 343.89C503.779 345.249 503.346 347.041 501.45 347.287C499.198 347.578 497.283 349.765 495.194 350.711C491.681 352.303 488.496 355.487 484.933 356.517C482.713 357.159 480.723 357.618 478.415 357.917" stroke="black" stroke-width="8.05958" stroke-linecap="round"/>
<path d="M478.565 359.074C461.105 352.633 442.207 350.868 425.151 343.311C415.051 338.836 405.351 334.542 394.867 331.024C390.801 329.659 386.605 328.196 382.65 326.527C373.605 322.71 365.954 314.454 360.156 306.76C353.28 297.636 346.748 288.253 339.789 279.201C332.47 269.68 327.169 258.179 321.64 247.564C318.645 241.814 315.953 235.216 314.667 228.794C313.755 224.242 317.223 220.726 317.731 216.371" stroke="black" stroke-width="8.05958" stroke-linecap="round"/>
<path d="M321.747 224.675C321.641 210.442 324.61 196.814 322.783 182.71C321.509 172.87 319.639 163.295 321.938 153.473" stroke="black" stroke-width="8.05958" stroke-linecap="round"/>
<path d="M361.998 300.449C364.631 303.735 366.715 307.4 369.531 310.56C372.898 314.34 377.251 317.478 381.38 320.378C385.898 323.551 390.825 326.578 395.985 328.593C398.609 329.618 401.404 330.308 403.966 331.48C404.592 331.766 405.228 332.043 405.833 332.37C406.028 332.475 406.978 333.206 406.962 332.961" stroke="black" stroke-width="5.68912" stroke-linecap="round"/>
<path d="M321.969 225.96C322.496 231.483 322.836 237.07 324.591 242.375C325.061 243.797 325.244 245.075 325.486 246.533C325.712 247.893 326.378 249.194 326.678 250.553" stroke="black" stroke-width="5.68912" stroke-linecap="round"/>
<path d="M436.889 69.9774C436.866 74.7263 436.072 79.4517 436.21 84.2042C436.219 84.5161 436.049 87.4667 436.962 86.6477C439.184 84.6565 438.105 80.4864 437.939 77.9204" stroke="black" stroke-width="5.68912" stroke-linecap="round"/>
<path d="M468.35 60.9918C472.329 63.8002 473.99 70.8357 476.728 74.868C478.085 76.8663 480.032 80.1969 480.437 82.6384C480.743 84.4793 481.842 87.975 484.091 87.7419C486.832 87.4578 485.067 82.9557 484.623 81.2985" stroke="black" stroke-width="5.68912" stroke-linecap="round"/>
<path d="M323.027 150.788C322.233 155.894 321.44 160.964 320.959 166.155C321.034 167.854 321.288 169.561 321.339 171.252C321.432 174.324 320.398 177.421 320.215 180.5C319.996 184.168 318.936 187.517 318.88 191.279C318.797 196.805 317.538 202.969 316.613 208.431C316.4 209.689 316.17 210.919 315.946 212.136C316.219 215.019 316.675 218.061 316.456 220.893C316.285 223.109 315.216 229.948 314.837 224.103C314.565 219.927 315.218 216.103 315.946 212.136C315.899 211.637 315.858 211.143 315.826 210.655C315.362 203.507 317.399 196.948 318.454 190.031C319.63 182.312 320.221 174.521 320.907 166.727C320.924 166.536 320.942 166.346 320.959 166.155C320.938 165.666 320.931 165.177 320.948 164.69C321.112 159.986 321.947 155.358 323.027 150.788Z" fill="url(#paint17_linear_1_248)"/>
<path d="M353.275 89.3635C348.263 94.9238 342.186 99.9822 338.093 106.285C335.846 109.744 333.842 113.343 331.458 116.718C328.859 120.397 327.72 124.954 326.342 129.295C324.683 134.516 324.67 139.797 323.887 145.148C322.828 152.381 321.55 159.429 320.907 166.727C320.221 174.521 319.63 182.312 318.454 190.031C317.399 196.948 315.362 203.507 315.826 210.655C316.041 213.96 316.713 217.571 316.456 220.893C316.285 223.109 315.216 229.948 314.837 224.103C314.482 218.647 315.705 213.792 316.613 208.431C317.538 202.969 318.797 196.805 318.88 191.279C318.936 187.517 319.996 184.168 320.215 180.5C320.398 177.421 321.432 174.324 321.339 171.252C321.273 169.074 320.872 166.87 320.948 164.69C321.17 158.32 322.622 152.089 324.25 145.953C326.714 136.663 329.701 127.104 333.561 118.306C335.994 112.762 340.961 107.344 345.125 103.034C347.319 100.764 350.661 100.199 352.56 97.4811" stroke="black" stroke-width="5.68912" stroke-linecap="round"/>
<defs>
<linearGradient id="paint0_linear_1_248" x1="294.169" y1="96.6996" x2="351.66" y2="501.581" gradientUnits="userSpaceOnUse">
<stop stop-color="#5DFF75"/>
<stop offset="1" stop-color="#FF8C8E"/>
</linearGradient>
<linearGradient id="paint1_linear_1_248" x1="88.4142" y1="297.131" x2="70.3655" y2="343.547" gradientUnits="userSpaceOnUse">
<stop stop-color="#5DFF75"/>
<stop offset="1" stop-color="#FF494C"/>
</linearGradient>
<linearGradient id="paint2_linear_1_248" x1="89.442" y1="300.806" x2="71.5412" y2="346.841" gradientUnits="userSpaceOnUse">
<stop stop-color="#5DFF75"/>
<stop offset="1" stop-color="#FF494C"/>
</linearGradient>
<linearGradient id="paint3_linear_1_248" x1="205.572" y1="255.895" x2="182.938" y2="314.104" gradientUnits="userSpaceOnUse">
<stop stop-color="#5DFF75"/>
<stop offset="1" stop-color="#FF494C"/>
</linearGradient>
<linearGradient id="paint4_linear_1_248" x1="207.924" y1="271.957" x2="189.875" y2="318.373" gradientUnits="userSpaceOnUse">
<stop stop-color="#5DFF75"/>
<stop offset="1" stop-color="#FF494C"/>
</linearGradient>
<linearGradient id="paint5_linear_1_248" x1="88.5132" y1="307.405" x2="72.2398" y2="349.255" gradientUnits="userSpaceOnUse">
<stop stop-color="#5DFF75"/>
<stop offset="1" stop-color="#FF494C"/>
</linearGradient>
<linearGradient id="paint6_linear_1_248" x1="97.5217" y1="278.974" x2="86.4262" y2="307.508" gradientUnits="userSpaceOnUse">
<stop stop-color="#5DFF75"/>
<stop offset="1" stop-color="#FF494C"/>
</linearGradient>
<linearGradient id="paint7_linear_1_248" x1="102.501" y1="295.649" x2="91.1093" y2="324.944" gradientUnits="userSpaceOnUse">
<stop stop-color="#5DFF75"/>
<stop offset="1" stop-color="#FF494C"/>
</linearGradient>
<linearGradient id="paint8_linear_1_248" x1="164.737" y1="338.777" x2="161.948" y2="389.806" gradientUnits="userSpaceOnUse">
<stop stop-color="#5DFF75"/>
<stop offset="1" stop-color="#FF494C"/>
</linearGradient>
<linearGradient id="paint9_linear_1_248" x1="378.908" y1="133.667" x2="353.835" y2="168.813" gradientUnits="userSpaceOnUse">
<stop stop-color="#5DFF75"/>
<stop offset="1" stop-color="#FF494C"/>
</linearGradient>
<linearGradient id="paint10_linear_1_248" x1="378.987" y1="136.974" x2="354.12" y2="171.833" gradientUnits="userSpaceOnUse">
<stop stop-color="#5DFF75"/>
<stop offset="1" stop-color="#FF494C"/>
</linearGradient>
<linearGradient id="paint11_linear_1_248" x1="486.151" y1="124.027" x2="454.707" y2="168.105" gradientUnits="userSpaceOnUse">
<stop stop-color="#5DFF75"/>
<stop offset="1" stop-color="#FF494C"/>
</linearGradient>
<linearGradient id="paint12_linear_1_248" x1="484.698" y1="138.025" x2="459.625" y2="173.172" gradientUnits="userSpaceOnUse">
<stop stop-color="#5DFF75"/>
<stop offset="1" stop-color="#FF494C"/>
</linearGradient>
<linearGradient id="paint13_linear_1_248" x1="376.799" y1="142.321" x2="354.192" y2="174.011" gradientUnits="userSpaceOnUse">
<stop stop-color="#5DFF75"/>
<stop offset="1" stop-color="#FF494C"/>
</linearGradient>
<linearGradient id="paint14_linear_1_248" x1="390.437" y1="120.355" x2="375.023" y2="141.961" gradientUnits="userSpaceOnUse">
<stop stop-color="#5DFF75"/>
<stop offset="1" stop-color="#FF494C"/>
</linearGradient>
<linearGradient id="paint15_linear_1_248" x1="391.061" y1="135.428" x2="375.236" y2="157.611" gradientUnits="userSpaceOnUse">
<stop stop-color="#5DFF75"/>
<stop offset="1" stop-color="#FF494C"/>
</linearGradient>
<linearGradient id="paint16_linear_1_248" x1="446.884" y1="184.802" x2="427.17" y2="206.841" gradientUnits="userSpaceOnUse">
<stop stop-color="#5DFF75"/>
<stop offset="1" stop-color="#FF494C"/>
</linearGradient>
<linearGradient id="paint17_linear_1_248" x1="329.781" y1="90.8887" x2="339.089" y2="234.259" gradientUnits="userSpaceOnUse">
<stop stop-color="#5DFF75"/>
<stop offset="1" stop-color="#FF494C"/>
</linearGradient>
</defs>
</svg>
